<?xml version="1.0" encoding="UTF-8" standalone="no"?>
<svg
   xmlns:dc="http://purl.org/dc/elements/1.1/"
   xmlns:cc="http://creativecommons.org/ns#"
   xmlns:rdf="http://www.w3.org/1999/02/22-rdf-syntax-ns#"
   xmlns:svg="http://www.w3.org/2000/svg"
   xmlns="http://www.w3.org/2000/svg"
   viewBox="0 0 360 270.07999"
   height="270.07999"
   width="360"
   xml:space="preserve"
   id="svg2"
   version="1.1"><metadata
     id="metadata8"><rdf:RDF><cc:Work
         rdf:about=""><dc:format>image/svg+xml</dc:format><dc:type
           rdf:resource="http://purl.org/dc/dcmitype/StillImage" /></cc:Work></rdf:RDF></metadata><defs
     id="defs6"><clipPath
       id="clipPath18"
       clipPathUnits="userSpaceOnUse"><path
         style="clip-rule:evenodd"
         id="path16"
         d="M 0,4.5776e-5 H 270 V 202.56005 H 0 Z" /></clipPath><clipPath
       id="clipPath28"
       clipPathUnits="userSpaceOnUse"><path
         style="clip-rule:evenodd"
         id="path26"
         d="M 4.023e-6,0 H 270 V 202.56 H 4.023e-6 Z" /></clipPath><clipPath
       id="clipPath40"
       clipPathUnits="userSpaceOnUse"><path
         style="clip-rule:evenodd"
         id="path38"
         d="M 4.023e-6,0 H 270 V 202.56 H 4.023e-6 Z" /></clipPath><clipPath
       id="clipPath52"
       clipPathUnits="userSpaceOnUse"><path
         style="clip-rule:evenodd"
         id="path50"
         d="M 4.023e-6,0 H 270 V 202.56 H 4.023e-6 Z" /></clipPath><clipPath
       id="clipPath64"
       clipPathUnits="userSpaceOnUse"><path
         style="clip-rule:evenodd"
         id="path62"
         d="M 4.023e-6,0 H 270 V 202.56 H 4.023e-6 Z" /></clipPath><clipPath
       id="clipPath76"
       clipPathUnits="userSpaceOnUse"><path
         style="clip-rule:evenodd"
         id="path74"
         d="M 4.023e-6,0 H 270 V 202.56 H 4.023e-6 Z" /></clipPath><clipPath
       id="clipPath88"
       clipPathUnits="userSpaceOnUse"><path
         style="clip-rule:evenodd"
         id="path86"
         d="M 4.023e-6,0 H 270 V 202.56 H 4.023e-6 Z" /></clipPath><clipPath
       id="clipPath100"
       clipPathUnits="userSpaceOnUse"><path
         style="clip-rule:evenodd"
         id="path98"
         d="M 4.023e-6,0 H 270 V 202.56 H 4.023e-6 Z" /></clipPath><clipPath
       id="clipPath112"
       clipPathUnits="userSpaceOnUse"><path
         style="clip-rule:evenodd"
         id="path110"
         d="M 4.023e-6,0 H 270 V 202.56 H 4.023e-6 Z" /></clipPath><clipPath
       id="clipPath124"
       clipPathUnits="userSpaceOnUse"><path
         style="clip-rule:evenodd"
         id="path122"
         d="M 4.023e-6,0 H 270 V 202.56 H 4.023e-6 Z" /></clipPath><clipPath
       id="clipPath224"
       clipPathUnits="userSpaceOnUse"><path
         style="clip-rule:evenodd"
         id="path222"
         d="M -1.4092e-5,202.56 H 270 V 3.0518e-5 L -2.6884e-5,1.5259e-5" /></clipPath><clipPath
       id="clipPath234"
       clipPathUnits="userSpaceOnUse"><path
         style="clip-rule:evenodd"
         id="path232"
         d="M -1.1432e-5,202.56 H 270 V 3.0518e-5 L -1.681e-5,1.5259e-5" /></clipPath><clipPath
       id="clipPath244"
       clipPathUnits="userSpaceOnUse"><path
         style="clip-rule:evenodd"
         id="path242"
         d="M 4.023e-6,0 H 270 V 202.56 H 4.023e-6 Z" /></clipPath><clipPath
       id="clipPath256"
       clipPathUnits="userSpaceOnUse"><path
         style="clip-rule:evenodd"
         id="path254"
         d="M 4.023e-6,0 H 270 V 202.56 H 4.023e-6 Z" /></clipPath><clipPath
       id="clipPath268"
       clipPathUnits="userSpaceOnUse"><path
         style="clip-rule:evenodd"
         id="path266"
         d="M 4.023e-6,0 H 270 V 202.56 H 4.023e-6 Z" /></clipPath><clipPath
       id="clipPath280"
       clipPathUnits="userSpaceOnUse"><path
         style="clip-rule:evenodd"
         id="path278"
         d="M 4.023e-6,0 H 270 V 202.56 H 4.023e-6 Z" /></clipPath></defs><g
     transform="matrix(1.3333333,0,0,-1.3333333,0,270.08)"
     id="g10"><g
       id="g12"><g
         clip-path="url(#clipPath18)"
         id="g14"><path
           id="path20"
           style="fill:#000000;fill-opacity:1;fill-rule:evenodd;stroke:none"
           d="M 0,1.5259e-5 H 270 V 202.56002 H 0 Z" /></g></g><g
       id="g22"><g
         clip-path="url(#clipPath28)"
         id="g24"><text
           id="text32"
           style="font-style:italic;font-variant:normal;font-weight:bold;font-size:3.96000004px;font-family:Arial;-inkscape-font-specification:Arial-BoldItalicMT;writing-mode:lr-tb;fill:#595959;fill-opacity:1;fill-rule:nonzero;stroke:none"
           transform="matrix(1,0,0,-1,39.024,9.12)"><tspan
             id="tspan30"
             y="0"
             x="0 2.39976 4.79952 7.1992798 9.59904 11.75724 14.03424 16.434 17.629919 19.78812">Tungsenia:</tspan></text>
</g></g><g
       id="g34"><g
         clip-path="url(#clipPath40)"
         id="g36"><text
           id="text44"
           style="font-variant:normal;font-weight:bold;font-size:3.96000004px;font-family:Arial;-inkscape-font-specification:Arial-BoldMT;writing-mode:lr-tb;fill:#595959;fill-opacity:1;fill-rule:nonzero;stroke:none"
           transform="matrix(1,0,0,-1,61.944,9.12)"><tspan
             id="tspan42"
             y="0"
             x="0 3.48084 5.8806 8.2803602 9.3614397 10.68012 11.7612 13.9194 16.31916 17.99424 19.31292 20.8692 23.268961 26.7498 27.945721 30.34548 32.745239 34.059959 36.218159 37.536839 38.855518 41.013721 42.094799 43.17588 44.371799 45.690479 47.852638 50.010841 52.169041 54.32724 55.64592 56.9646">modified from Lu et al. (2012); </tspan></text>
</g></g><g
       id="g46"><g
         clip-path="url(#clipPath52)"
         id="g48"><text
           id="text56"
           style="font-style:italic;font-variant:normal;font-weight:bold;font-size:3.96000004px;font-family:Arial;-inkscape-font-specification:Arial-BoldItalicMT;writing-mode:lr-tb;fill:#595959;fill-opacity:1;fill-rule:nonzero;stroke:none"
           transform="matrix(1,0,0,-1,120.65,9.12)"><tspan
             id="tspan54"
             y="0"
             x="0 3.1165199 5.5162802 7.9160399 10.3158 12.71556 14.87376 17.150761 19.665359">Gogonasus</tspan></text>
</g></g><g
       id="g58"><g
         clip-path="url(#clipPath64)"
         id="g60"><text
           id="text68"
           style="font-variant:normal;font-weight:bold;font-size:3.96000004px;font-family:Arial;-inkscape-font-specification:Arial-BoldMT;writing-mode:lr-tb;fill:#595959;fill-opacity:1;fill-rule:nonzero;stroke:none"
           transform="matrix(1,0,0,-1,144.19,9.12)"><tspan
             id="tspan66"
             y="0"
             x="0 2.1582 4.55796 6.9577198">and </tspan></text>
</g></g><g
       id="g70"><g
         clip-path="url(#clipPath76)"
         id="g72"><text
           id="text80"
           style="font-style:italic;font-variant:normal;font-weight:bold;font-size:3.96000004px;font-family:Arial;-inkscape-font-specification:Arial-BoldItalicMT;writing-mode:lr-tb;fill:#595959;fill-opacity:1;fill-rule:nonzero;stroke:none"
           transform="matrix(1,0,0,-1,152.59,9.12)"><tspan
             id="tspan78"
             y="0"
             x="0 2.39976 3.48084 5.63904 6.9577198 9.1198797 11.27808 12.35916 13.44024 15.71724">Tiktaalik:</tspan></text>
</g></g><g
       id="g82"><g
         clip-path="url(#clipPath88)"
         id="g84"><text
           id="text92"
           style="font-variant:normal;font-weight:bold;font-size:3.96000004px;font-family:Arial;-inkscape-font-specification:Arial-BoldMT;writing-mode:lr-tb;fill:#595959;fill-opacity:1;fill-rule:nonzero;stroke:none"
           transform="matrix(1,0,0,-1,171.31,9.12)"><tspan
             id="tspan90"
             y="0"
             x="0 2.7601199 5.1598802 7.5596399 9.9594002 11.51568 14.03028 16.18848 19.669319 22.06908 23.62536 25.78356 27.09828 28.41696 30.69396 32.852161 35.010361 36.329041 38.728802 40.28508 41.366161 43.4016 45.559799 47.95956 49.63464 52.034401 54.311401 55.50732 58.021919 59.103001 60.184078 63.660961 64.742043 66.900238 69.300003 71.458199 73.616402 74.697479 76.253761 79.128723 81.286919 83.445122 85.603317 87.76152 90.038521 91.357201">Nobu Tamura (vectorized by T. Michael Keesey; </tspan></text>
</g></g><g
       id="g94"><g
         clip-path="url(#clipPath100)"
         id="g96"><text
           id="text104"
           style="font-variant:normal;font-weight:bold;font-size:3.96000004px;font-family:Arial;-inkscape-font-specification:Arial-BoldMT;writing-mode:lr-tb;fill:#595959;fill-opacity:1;fill-rule:nonzero;stroke:none"
           transform="matrix(1,0,0,-1,47.424,4.32)"><tspan
             id="tspan102"
             y="0"
             x="0 2.39976 3.7184401 5.0371199 7.4408398 9.59904 10.91772 11.9988 13.07988 15.23808 16.91316 19.07136 21.34836 22.66704 23.748119 26.143921 28.30212 30.579121 32.978882 36.574558 40.055401 42.57 45.084599 47.242802 48.438721 50.838482 52.39476 54.909359 55.99044 57.186359 58.267441 60.544441 62.821442 65.336037 67.49424 69.77124 72.048241 73.129318 75.529083">https://creativecommons.org/licenses/by</tspan></text>
</g></g><g
       id="g106"><g
         clip-path="url(#clipPath112)"
         id="g108"><text
           id="text116"
           style="font-variant:normal;font-weight:bold;font-size:3.96000004px;font-family:Arial;-inkscape-font-specification:Arial-BoldMT;writing-mode:lr-tb;fill:#595959;fill-opacity:1;fill-rule:nonzero;stroke:none"
           transform="matrix(1,0,0,-1,125.45,4.32)"><tspan
             id="tspan114"
             y="0"
             x="0">-</tspan></text>
</g></g><g
       id="g118"><g
         clip-path="url(#clipPath124)"
         id="g120"><text
           id="text128"
           style="font-variant:normal;font-weight:bold;font-size:3.96000004px;font-family:Arial;-inkscape-font-specification:Arial-BoldMT;writing-mode:lr-tb;fill:#595959;fill-opacity:1;fill-rule:nonzero;stroke:none"
           transform="matrix(1,0,0,-1,126.77,4.32)"><tspan
             id="tspan126"
             y="0"
             x="0 2.277 4.4352002 5.6311202 7.9081202 8.9891996 11.2662 12.34728 13.78476 15.10344 16.78248 20.283119 22.44132 24.84108 26.15976 27.478439 30.98304 33.382801 35.782558 36.86364 38.18232 39.263401 41.4216 43.821362 45.496441 46.815121 48.371399 50.77116 54.275761 55.47168 58.350601 59.54652 61.70472 63.862919 66.021118 68.179321 69.735603 72.610558 75.010323 76.0914 78.491158 80.04744 82.205643 84.6054 87.005157 88.56144 91.080002 92.161079 94.319283 95.637962 97.800117 99.958321 102.35808 104.03316 107.14968 109.30788 111.70764 113.86584 116.14284 118.30104 119.61972 121.78188 125.28648 127.44468 129.24252 130.32359 132.72336 134.88156">sa/3.0/); Map: modified from © 2016 Colorado Plateau Geosystems Inc.</tspan></text>
</g></g><path
       id="path130"
       style="fill:#404040;fill-opacity:1;fill-rule:evenodd;stroke:none"
       d="m 96.604,171.89 c 1.867,0.43 2.99,0.81 4.146,0.62 1.16,-0.19 2.04,-1.23 2.8,-1.76 0.76,-0.54 0.78,-1.49 1.77,-1.46 0.98,0.04 2.57,1.58 4.14,1.66 1.58,0.09 3.51,-1.55 5.29,-1.14 1.78,0.42 4.15,2.91 5.4,3.63 1.24,0.73 1.31,0.71 2.07,0.73 0.76,0.02 1.59,-1.19 2.49,-0.62 0.9,0.57 2.49,4.18 2.9,4.05 0.42,-0.14 -0.45,-3.83 -0.41,-4.88 0.03,-1.06 -0.07,-1.27 0.62,-1.46 0.69,-0.19 2.73,-0.03 3.53,0.32 0.79,0.34 0.62,1.47 1.24,1.76 0.62,0.29 1.57,-0.31 2.49,0 0.91,0.31 2.44,1.75 3.01,1.87 0.57,0.12 0.86,-0.36 0.41,-1.14 -0.45,-0.78 -2.33,-2.87 -3.11,-3.53 -0.78,-0.66 -1.31,0.03 -1.56,-0.42 -0.24,-0.45 0.76,-2.16 0.11,-2.28 -0.66,-0.12 -2.97,1.71 -4.05,1.56 -1.07,-0.16 -1.45,-2.11 -2.38,-2.49 -0.94,-0.39 -2.59,0.64 -3.22,0.2 -0.62,-0.43 -0.79,-2.14 -0.52,-2.8 0.28,-0.66 1.53,-0.31 2.18,-1.14 0.66,-0.83 1.47,-2.53 1.77,-3.84 0.29,-1.32 0.41,-4.1 0,-4.05 -0.42,0.05 -1.61,3.17 -2.49,4.36 -0.88,1.19 -1.96,2.97 -2.8,2.8 -0.85,-0.17 -1.51,-3.42 -2.28,-3.84 -0.78,-0.41 -1.8,1.47 -2.39,1.35 -0.59,-0.12 -0.6,-1.37 -1.14,-2.08 -0.54,-0.7 -1.4,-1.81 -2.07,-2.18 -0.68,-0.36 -1.4,-0.43 -1.98,0 -0.57,0.44 -0.81,2.43 -1.45,2.6 -0.64,0.17 -1.45,-1.12 -2.38,-1.56 -0.94,-0.43 -2.8,-0.33 -3.22,-1.04 -0.41,-0.7 0.26,-2.31 0.73,-3.21 0.47,-0.9 1.97,-1.63 2.07,-2.18 0.11,-0.56 -1.59,-0.52 -1.45,-1.14 0.14,-0.63 1.57,-2.17 2.28,-2.6 0.71,-0.43 1.7,0.43 1.97,0 0.28,-0.43 0.05,-2.16 -0.31,-2.59 -0.36,-0.44 -1.45,0.34 -1.86,0 -0.42,-0.35 -0.16,-1.39 -0.63,-2.08 -0.46,-0.69 -1.26,-1.94 -2.17,-2.08 -0.92,-0.13 -2.56,0.78 -3.32,1.25 -0.76,0.47 -0.25,1.12 -1.25,1.56 -1,0.43 -4.596,0.53 -4.768,1.03 -0.173,0.51 3.438,1.6 3.728,1.98 0.3,0.38 -1.637,-0.21 -1.965,0.31 -0.329,0.52 0.501,2.42 0,2.8 -0.502,0.38 -2.386,-1.33 -3.008,-0.52 -0.622,0.81 -1.072,3.69 -0.726,5.4 0.346,1.71 2.938,3.51 2.8,4.88 -0.138,1.36 -2.713,2.44 -3.629,3.32 -0.917,0.88 -1.124,1.59 -1.867,1.97 -0.743,0.38 -2.161,-0.71 -2.593,0.31 -0.432,1.02 -1.175,4.54 0,5.82 1.175,1.28 5.185,1.53 7.052,1.97 z" /><path
       id="path132"
       style="fill:#404040;fill-opacity:1;fill-rule:evenodd;stroke:none"
       d="m 69.205,130.17 c 0.831,0.36 3.081,-1.2 5.089,-0.42 2.008,0.78 5.504,3.63 6.958,5.08 1.454,1.46 0.779,3.86 1.766,3.64 0.986,-0.23 2.475,-4.15 4.154,-4.98 1.679,-0.83 4.535,-0.04 5.92,0 1.384,0.03 1.263,0.51 2.388,0.2 1.125,-0.31 3.306,-1.76 4.362,-2.07 1.058,-0.31 1.588,-0.33 1.978,0.21 0.38,0.53 -0.71,2.28 0.31,3 1.02,0.73 5.5,1.58 5.81,1.35 0.31,-0.22 -3.23,-1.81 -3.94,-2.69 -0.71,-0.89 0.27,-1.82 -0.32,-2.6 -0.58,-0.77 -2.92,-1.35 -3.21,-2.07 -0.3,-0.73 0.67,-1.73 1.45,-2.28 0.78,-0.56 2.2,-1.49 3.22,-1.04 1.02,0.45 2.2,3.25 2.91,3.73 0.71,0.49 1.1,-0.31 1.35,-0.83 0.24,-0.52 -0.63,-1.57 0.1,-2.28 0.73,-0.71 3.65,-1.26 4.26,-1.97 0.6,-0.71 -0.05,-2.07 -0.62,-2.28 -0.58,-0.21 -2.17,1.85 -2.81,1.04 -0.64,-0.82 -1.52,-4.36 -1.04,-5.92 0.49,-1.55 3.53,-2.42 3.95,-3.42 0.41,-1 -0.78,-2.42 -1.45,-2.59 -0.68,-0.18 -2.12,1.92 -2.6,1.55 -0.49,-0.36 0.35,-2.5 -0.31,-3.73 -0.66,-1.23 -2.46,-2.77 -3.64,-3.63 -1.17,-0.87 -2.99,-1.11 -3.42,-1.56 -0.44,-0.45 -0.16,-1.23 0.83,-1.14 0.98,0.09 4.17,1.75 5.09,1.66 0.91,-0.09 0.93,-1.16 0.41,-2.18 -0.52,-1.02 -2.15,-3.179 -3.53,-3.939 -1.39,-0.761 -4.14,-0.242 -4.778,-0.623 -0.64,-0.38 1.368,-0.674 0.938,-1.659 -0.44,-0.986 -2.928,-3.06 -3.534,-4.253 -0.606,-1.193 0.571,-2.058 -0.104,-2.905 -0.675,-0.847 -3.202,-1.383 -3.946,-2.178 -0.745,-0.795 0.19,-1.919 -0.52,-2.593 -0.709,-0.674 -2.683,-0.45 -3.739,-1.452 -1.055,-1.003 -1.713,-3.804 -2.596,-4.565 -0.883,-0.76 -2.562,-0.899 -2.7,0 -0.139,0.899 1.004,4.409 1.869,5.394 0.866,0.986 2.164,-0.432 3.324,0.519 1.159,0.951 3.963,4.875 3.635,5.187 -0.329,0.311 -3.808,-2.576 -5.609,-3.32 -1.8,-0.743 -3.513,-0.847 -5.192,-1.141 -1.679,-0.294 -3.756,-0.605 -4.882,-0.622 -1.125,-0.018 -1.54,0.034 -1.869,0.518 -0.329,0.485 -0.848,1.989 -0.104,2.386 0.745,0.398 3.514,-0.691 4.57,0 1.056,0.692 1.662,2.732 1.765,4.149 0.104,1.418 -0.052,3.112 -1.142,4.357 -1.09,1.245 -4.379,2.956 -5.4,3.112 -1.022,0.156 -0.312,-1.815 -0.727,-2.178 -0.416,-0.363 -1.333,-0.242 -1.766,0 -0.433,0.242 -0.104,1.78 -0.831,1.452 -0.727,-0.329 -3.185,-3.786 -3.531,-3.423 -0.346,0.363 0.641,4.391 1.454,5.601 0.814,1.206 2.977,1.006 3.427,1.656 0.45,0.66 -1.038,1.99 -0.727,2.29 0.312,0.29 1.541,-0.76 2.597,-0.52 1.056,0.24 2.735,2.05 3.738,1.97 1.004,-0.09 1.61,-2.44 2.285,-2.49 0.675,-0.05 1.748,1.33 1.766,2.18 0.017,0.84 -1.454,2.04 -1.662,2.9 -0.208,0.87 0.346,1.44 0.416,2.28 0.069,0.85 0.571,2.54 0,2.8 -0.572,0.26 -2.735,-1.43 -3.428,-1.24 -0.692,0.19 -0.277,2.04 -0.727,2.39 -0.45,0.34 -2.059,-1.47 -1.973,-0.32 0.087,1.16 2.596,5.61 2.493,7.27 -0.104,1.65 -3.272,1.97 -3.116,2.69 0.156,0.73 3.029,1.7 4.05,1.66 1.022,-0.03 1.16,-1.87 2.077,-1.87 0.918,0 2.129,1.68 3.428,1.87 1.298,0.19 3.496,-0.81 4.361,-0.72 0.866,0.08 1.281,0.69 0.831,1.24 -0.45,0.55 -1.783,1.99 -3.531,2.07 -1.748,0.09 -5.383,-1.64 -6.958,-1.55 -1.575,0.09 -1.16,1.88 -2.492,2.07 -1.333,0.19 -4.38,-0.79 -5.505,-0.93 -1.125,-0.14 -1.038,-0.21 -1.246,0.1 -0.208,0.31 -0.935,2.23 -0.104,2.6 z" /><path
       id="path134"
       style="fill:#404040;fill-opacity:1;fill-rule:evenodd;stroke:none"
       d="m 11.793,59.274 c 0.415,0.155 5.57,-2.611 7.784,-3.32 2.214,-0.709 2.888,-0.311 5.5,-0.934 2.612,-0.622 6.175,-1.85 10.171,-2.801 3.996,-0.951 10.015,-2.421 13.803,-2.905 3.789,-0.484 6.435,-0.034 8.926,0 2.491,0.035 4.549,-0.138 6.02,0.208 1.47,0.346 2.75,0.778 2.802,1.867 0.052,1.089 -2.958,4.496 -2.491,4.669 0.467,0.173 3.39,-2.421 5.293,-3.631 1.903,-1.211 4.515,-2.594 6.123,-3.631 1.609,-1.038 4.031,-2.456 3.529,-2.594 -0.502,-0.138 -5.466,1.815 -6.539,1.764 -1.072,-0.052 -0.224,-1.591 0.104,-2.075 0.329,-0.484 1.851,-0.571 1.868,-0.83 0.018,-0.26 -1.868,-0.277 -1.764,-0.726 0.104,-0.45 4.134,-2.058 2.387,-1.972 -1.747,0.087 -12.869,2.49 -12.869,2.49 -5.086,1.003 -11.382,2.127 -17.644,3.528 -6.261,1.4 -15.308,3.769 -19.926,4.876 -4.619,1.106 -5.709,0.864 -7.784,1.763 -2.076,0.899 -5.708,4.098 -5.293,4.254 z" /><path
       id="path136"
       style="fill:#404040;fill-opacity:1;fill-rule:evenodd;stroke:none"
       d="m 67.632,57.977 c -0.571,1.125 2.423,2.578 3.012,3.426 0.588,0.847 0.069,1.626 0.519,1.66 0.45,0.035 1.783,-1.851 2.181,-1.453 0.398,0.398 -0.848,3.512 0.208,3.841 1.056,0.328 5.071,-1.99 6.127,-1.869 1.056,0.121 -0.19,2.163 0.208,2.595 0.398,0.433 0.658,-0.121 2.181,0 1.523,0.121 4.95,0.692 6.958,0.727 2.008,0.035 3.254,-0.83 5.089,-0.519 1.835,0.311 4.189,1.713 5.915,2.387 1.74,0.675 3.15,0.623 4.47,1.661 1.32,1.038 2.39,3.201 3.43,4.567 1.04,1.367 2.16,3.374 2.8,3.633 0.64,0.26 0.49,-1.73 1.04,-2.076 0.55,-0.346 2.09,0.986 2.28,0 0.2,-0.986 -1.26,-5.345 -1.14,-5.916 0.12,-0.571 1.25,2.214 1.87,2.491 0.62,0.277 1.14,-0.069 1.87,-0.831 0.73,-0.761 1.8,-3.581 2.49,-3.736 0.7,-0.156 1.11,2.958 1.67,2.802 0.55,-0.155 0.53,-3.079 1.66,-3.736 1.12,-0.658 3.93,0.328 5.09,-0.208 1.16,-0.536 1.4,-1.678 1.87,-3.01 0.46,-1.332 0.39,-4.74 0.93,-4.983 0.54,-0.242 0.81,2.872 2.28,3.53 1.48,0.657 5.18,-0.312 6.55,0.415 1.36,0.726 0.97,2.854 1.66,3.944 0.69,1.09 2.08,1.453 2.49,2.595 0.42,1.142 0.17,3.529 0,4.256 -0.17,0.726 -1.02,-0.554 -1.04,0.104 -0.01,0.657 0.19,2.854 0.94,3.84 0.74,0.986 3.27,1.246 3.53,2.076 0.26,0.831 -2.25,2.405 -1.97,2.907 0.27,0.501 3.04,-0.329 3.63,0.103 0.59,0.433 -0.21,1.921 -0.1,2.491 0.1,0.571 1.07,0.191 0.72,0.935 -0.34,0.744 -3.06,3.408 -2.8,3.529 0.26,0.121 3.58,-3.062 4.36,-2.803 0.78,0.26 -0.14,4.048 0.31,4.36 0.45,0.311 0.92,-2.612 2.39,-2.491 1.47,0.121 4.8,2.733 6.44,3.217 1.64,0.485 3.44,0.744 3.43,-0.311 -0.02,-1.055 -3.26,-4.913 -3.53,-6.02 -0.28,-1.107 2.16,0.346 1.87,-0.623 -0.3,-0.969 -3.71,-4.014 -3.64,-5.19 0.07,-1.176 2.98,-1.661 4.05,-1.868 1.07,-0.208 2.06,1.107 2.39,0.622 0.33,-0.484 -0.66,-3.027 -0.42,-3.529 0.25,-0.501 1.53,-0.19 1.87,0.519 0.35,0.71 -0.46,3.945 0.21,3.737 0.68,-0.208 2.06,-4.065 3.84,-4.982 1.79,-0.917 5.39,-0.173 6.86,-0.519 1.47,-0.346 0.93,-1.627 1.97,-1.557 1.04,0.069 2.88,1.297 4.26,1.972 1.38,0.675 2.94,1.886 4.05,2.076 1.11,0.19 1.73,-2.007 2.6,-0.934 0.86,1.072 2.84,6.383 2.59,7.369 -0.24,0.986 -2.77,-0.934 -4.05,-1.453 -1.28,-0.519 -2.84,-0.951 -3.63,-1.661 -0.8,-0.709 -0.04,-2.058 -1.14,-2.595 -1.11,-0.536 -3.97,-0.397 -5.51,-0.622 -1.54,-0.225 -4.48,-1.263 -3.74,-0.727 0.75,0.536 5.56,2.56 8.21,3.944 2.65,1.384 6.18,3.253 7.68,4.36 1.51,1.107 0.64,1.816 1.35,2.283 0.71,0.468 1.92,0.45 2.91,0.519 0.99,0.07 1.97,-0.813 3.01,-0.103 1.04,0.709 2.32,4.013 3.22,4.359 0.9,0.346 1.63,-2.283 2.18,-2.283 0.56,0 1.02,1.401 1.14,2.283 0.13,0.882 0.06,2.509 -0.41,3.01 -0.47,0.502 -2.53,-0.899 -2.39,0 0.14,0.9 2.37,4.187 3.22,5.398 0.85,1.208 1.56,1.068 1.87,1.868 0.31,0.8 -1,2.13 0,2.91 1,0.78 4.74,0.93 6.02,1.76 1.28,0.83 0.87,2.6 1.66,3.22 0.8,0.62 2.01,-0.04 3.12,0.52 1.11,0.55 2.49,2.02 3.53,2.8 1.04,0.78 2.51,2.39 2.7,1.87 0.19,-0.52 -1.45,-3.31 -1.56,-4.98 -0.1,-1.68 0.66,-3.86 0.94,-5.09 0.28,-1.23 0.07,-1.73 0.73,-2.28 0.65,-0.56 1.92,-0.87 3.21,-1.04 1.3,-0.17 4.42,0.9 4.57,0 0.16,-0.9 -2.89,-4.153 -3.63,-5.399 -0.74,-1.245 -0.78,-1.574 -0.83,-2.076 -0.05,-0.501 0.86,-0.398 0.52,-0.934 -0.35,-0.536 -2.13,-1.228 -2.6,-2.283 -0.47,-1.056 0.73,-2.716 -0.21,-4.049 -0.93,-1.332 -3.77,-2.508 -5.4,-3.944 -1.62,-1.436 -2.61,-3.356 -4.36,-4.671 -1.75,-1.315 -3.89,-1.591 -6.13,-3.218 -2.23,-1.626 -5.31,-4.411 -7.27,-6.539 -1.95,-2.128 -1.73,-4.238 -4.46,-6.228 -2.74,-1.989 -7.39,-3.84 -11.94,-5.709 -4.56,-1.868 -12.67,-4.792 -15.37,-5.501 -2.71,-0.709 0.17,1.159 -0.84,1.246 -1,0.086 -4.2,-0.865 -5.19,-0.727 -0.99,0.138 1.54,2.128 -0.73,1.557 -2.26,-0.571 -8.37,-3.668 -12.87,-4.982 -4.5,-1.315 -14.13,-2.907 -14.13,-2.907 -5.8,-1.193 -15.07,-3.477 -20.66,-4.256 -5.6,-0.778 -10.55,-1.055 -12.88,-0.415 -2.339,0.64 -0.54,3.356 -1.14,4.256 -0.61,0.9 -1.511,0.934 -2.497,1.142 -0.987,0.207 -2.856,0.363 -3.427,0.104 -0.572,-0.26 0.969,-1.367 0,-1.661 -0.97,-0.294 -4.241,-0.519 -5.816,-0.104 -1.575,0.415 -2.406,1.678 -3.635,2.595 -1.229,0.917 -4.016,2.543 -3.739,2.906 0.277,0.364 4.449,-0.986 5.401,-0.726 0.952,0.259 -0.312,1.903 0.311,2.283 0.623,0.381 3.427,0 3.427,0 1.022,0 1.299,0.277 2.701,0 1.402,-0.276 4.379,-2.11 5.712,-1.66 1.332,0.449 1.492,3.927 2.282,4.359 0.8,0.433 1.89,-1.92 2.49,-1.764 0.61,0.155 0.2,2.162 1.15,2.698 0.95,0.537 3.81,0.018 4.57,0.519 0.76,0.502 0.81,1.678 0,2.491 -0.82,0.814 -3.4,2.146 -4.88,2.388 -1.49,0.242 -3.19,-1.177 -4.05,-0.934 -0.87,0.242 -0.37,2.387 -1.147,2.387 -0.779,0 -2.493,-1.765 -3.531,-2.387 -1.039,-0.623 -1.887,-0.727 -2.7,-1.35 -0.814,-0.623 -0.848,-2.543 -2.181,-2.387 -1.333,0.156 -4.431,2.906 -5.816,3.321 -1.385,0.416 -1.437,-0.692 -2.493,-0.83 -1.055,-0.138 -2.769,0.381 -3.842,0 -1.073,-0.381 -1.748,-1.713 -2.596,-2.284 -0.849,-0.57 -1.108,-1.522 -2.493,-1.141 -1.385,0.38 -5.868,2.197 -6.439,3.321 z" /><path
       id="path138"
       style="fill:#404040;fill-opacity:1;fill-rule:evenodd;stroke:none"
       d="m 148.68,100.93 c -0.07,0.35 2.46,-0.24 3.01,0.42 0.56,0.66 -0.48,3.14 0.32,3.54 0.79,0.4 3.51,-1.61 4.46,-1.15 0.96,0.47 0.09,3.46 1.25,3.96 1.16,0.51 3.83,-1.09 5.71,-0.94 1.89,0.16 4.25,1.71 5.61,1.88 1.37,0.17 1.44,-0.97 2.6,-0.83 1.16,0.14 3.34,1.54 4.37,1.66 1.02,0.12 1.09,-1.63 1.76,-0.93 0.68,0.69 1.72,5.03 2.29,5.1 0.57,0.07 1.14,-3.61 1.14,-4.69 0,-1.07 -0.23,-0.9 -1.14,-1.77 -0.92,-0.87 -2.72,-2.5 -4.37,-3.44 -1.64,-0.93 -3.6,-2.13 -5.5,-2.18 -1.91,-0.06 -4.26,1.56 -5.92,1.87 -1.67,0.31 -4.06,0 -4.06,0 -1.24,0 -2.56,0.42 -3.42,0 -0.87,-0.41 -0.99,-1.8 -1.77,-2.5 -0.78,-0.69 -1.96,-1.421 -2.91,-1.664 -0.95,-0.243 -3.36,1.314 -3.43,1.664 z" /><path
       id="path140"
       style="fill:#404040;fill-opacity:1;fill-rule:evenodd;stroke:none"
       d="m 183.42,111.84 c 0.56,-0.12 3.32,3.13 5.11,3.75 1.79,0.63 5.47,-0.47 5.63,0 0.15,0.47 -4.21,2.03 -4.69,2.82 -0.49,0.78 1.84,1.12 1.77,1.87 -0.07,0.75 -2.03,1.88 -2.19,2.61 -0.16,0.72 1.13,1.21 1.25,1.77 0.12,0.55 -1.04,1.12 -0.52,1.56 0.52,0.43 3.77,0.57 3.65,1.04 -0.13,0.47 -2.94,2.66 -4.38,1.77 -1.44,-0.88 -3.27,-5.05 -4.27,-7.08 -1.01,-2.03 -1.85,-4.17 -1.78,-5.11 0.07,-0.93 1.95,0.32 2.19,-0.52 0.25,-0.83 -2.32,-4.36 -1.77,-4.48 z" /><path
       id="path142"
       style="fill:#404040;fill-opacity:1;fill-rule:evenodd;stroke:none"
       d="m 191.41,137.8 c -0.2,-1.06 2.25,-5.47 3.42,-7.13 1.17,-1.65 2.85,-2.53 3.62,-2.79 0.78,-0.26 0.44,1.55 1.04,1.24 0.6,-0.31 2.55,-3.39 2.59,-3.1 0.03,0.29 -1.35,3.58 -2.38,4.86 -1.04,1.27 -3.23,1.76 -3.83,2.79 -0.61,1.03 0.74,2.77 0.2,3.41 -0.53,0.64 -4.45,1.79 -4.66,0.72 z" /><path
       id="path144"
       style="fill:#404040;fill-opacity:1;fill-rule:evenodd;stroke:none"
       d="m 72.243,126.47 c -0.24,0.18 -0.171,-3.81 -0.411,-5.17 -0.24,-1.36 -0.686,-2.85 -1.029,-3 -0.343,-0.16 -0.686,2.14 -1.029,2.07 -0.344,-0.07 -1.184,-1.5 -1.03,-2.48 0.155,-0.99 1.99,-2.51 1.956,-3.42 -0.035,-0.91 -1.99,-0.93 -2.161,-2.07 -0.172,-1.14 0.891,-4.69 1.132,-4.76 0.24,-0.07 -0.292,3.26 0.308,4.35 0.601,1.08 2.882,1.58 3.293,2.17 0.412,0.59 -1.029,0.64 -0.823,1.35 0.206,0.7 1.921,2.1 2.058,2.89 0.138,0.8 -0.874,0.68 -1.235,1.87 -0.36,1.19 -0.789,6.03 -1.029,6.2 z" /><path
       id="path146"
       style="fill:#404040;fill-opacity:1;fill-rule:evenodd;stroke:none"
       d="m 101.15,95.499 c -0.98,-0.882 -1.05,-2.68 -1.15,-3.632 -0.104,-0.951 -0.034,-1.729 0.52,-2.075 0.56,-0.346 2.36,-0.674 2.82,0 0.45,0.675 -0.58,3.943 -0.11,4.047 0.47,0.104 1.55,-3.666 2.92,-3.424 1.37,0.242 4.26,3.164 5.32,4.877 1.06,1.712 0.36,4.064 1.04,5.398 0.68,1.33 3.35,2.16 3.02,2.59 -0.33,0.43 -3.87,0.62 -5,0 -1.13,-0.62 -0.99,-2.71 -1.77,-3.734 -0.79,-1.021 -1.62,-1.695 -2.92,-2.387 -1.31,-0.692 -3.72,-0.778 -4.69,-1.66 z" /><path
       id="path148"
       style="fill:#404040;fill-opacity:1;fill-rule:evenodd;stroke:none"
       d="m 54.729,93.052 c -0.173,-0.397 2.199,-3.002 3.013,-3.416 0.813,-0.414 1.333,0.966 1.87,0.932 0.536,-0.035 1.108,-1.381 1.35,-1.139 0.242,0.242 -0.381,2.536 0.104,2.588 0.485,0.052 1.991,-2.295 2.805,-2.277 0.814,0.017 2.164,1.863 2.078,2.38 -0.087,0.518 -1.766,0.328 -2.598,0.725 -0.831,0.397 -2.441,1.242 -2.389,1.656 0.052,0.414 2.216,0.397 2.701,0.828 0.485,0.432 -0.173,1.174 0.208,1.76 0.381,0.587 1.87,1.122 2.078,1.76 0.207,0.638 -0.243,2.101 -0.832,2.071 -0.588,-0.04 -1.869,-2.174 -2.701,-2.278 -0.831,-0.103 -2.25,2.088 -2.285,1.658 -0.035,-0.433 2.13,-3.452 2.078,-4.246 -0.052,-0.794 -1.853,-0.034 -2.39,-0.518 -0.536,-0.483 -0.571,-2.553 -0.831,-2.38 -0.259,0.172 -0.467,3.209 -0.727,3.416 -0.26,0.207 -0.918,-1.415 -0.831,-2.174 0.087,-0.759 1.887,-2.243 1.351,-2.381 -0.537,-0.138 -3.879,1.432 -4.052,1.035 z" /><path
       id="path150"
       style="fill:#404040;fill-opacity:1;fill-rule:evenodd;stroke:none"
       d="m 207.97,133.79 c -0.33,0.18 -0.33,-3.77 0,-5.51 0.33,-1.73 1.62,-3.19 2.01,-4.88 0.38,-1.7 0.05,-5.08 0.31,-5.31 0.27,-0.22 1.32,2.43 1.27,3.95 -0.05,1.53 -1,3.54 -1.58,5.2 -0.58,1.67 -1.68,6.38 -2.01,6.55 z" /><path
       id="path152"
       style="fill:#404040;fill-opacity:1;fill-rule:evenodd;stroke:none"
       d="m 109.53,105.26 c -0.69,0.18 -1.97,2.02 -1.14,2.86 0.83,0.83 5.1,1.99 6.12,2.14 1.03,0.16 -0.6,-1.02 0,-1.22 0.61,-0.21 2.31,-0.34 3.64,0 1.33,0.34 3.86,2.38 4.36,2.04 0.5,-0.34 -0.52,-3.54 -1.35,-4.09 -0.83,-0.54 -2.2,0.82 -3.64,0.82 -1.43,0 -3.85,-0.39 -4.98,-0.82 -1.12,-0.42 -2.32,-1.92 -3.01,-1.73 z" /><path
       id="path154"
       style="fill:#404040;fill-opacity:1;fill-rule:evenodd;stroke:none"
       d="m 213.32,68.814 c -0.44,-0.257 -0.43,-1.684 -0.51,-2.371 -0.09,-0.688 -0.33,-1.633 0,-1.753 0.32,-0.121 1.29,0.928 1.96,1.031 0.67,0.103 1.94,-0.791 2.06,-0.413 0.12,0.378 -0.96,2.149 -1.34,2.681 -0.38,0.533 -1.72,1.083 -2.17,0.825 z" /><path
       id="path156"
       style="fill:#404040;fill-opacity:1;fill-rule:evenodd;stroke:none"
       d="m 47.843,110.81 c -0.772,-0.84 -0.377,-2.29 0,-3.09 0.377,-0.81 1.799,-1.81 2.262,-1.76 0.463,0.05 -0.034,1.64 0.514,2.07 0.549,0.43 2.897,0.25 2.777,0.51 -0.12,0.26 -3.342,0.33 -3.497,1.03 -0.154,0.71 3.034,2.96 2.571,3.2 -0.463,0.24 -3.856,-1.12 -4.627,-1.96 z" /><path
       id="path158"
       style="fill:#404040;fill-opacity:1;fill-rule:evenodd;stroke:none"
       d="m 117.02,110.55 c 0.25,-0.14 3.08,0.19 3.69,0.93 0.62,0.74 -0.46,2.22 0,3.51 0.46,1.29 2.53,2.85 2.74,4.23 0.22,1.38 -0.96,3.58 -1.47,4.02 -0.51,0.45 -1.48,-0.48 -1.58,-1.34 -0.11,-0.86 1.14,-2.66 0.94,-3.82 -0.19,-1.15 -1.75,-2.13 -2.11,-3.09 -0.35,-0.97 0.3,-2.07 0,-2.68 -0.29,-0.62 -2.46,-1.62 -2.21,-1.76 z" /><path
       id="path160"
       style="fill:#404040;fill-opacity:1;fill-rule:evenodd;stroke:none"
       d="m 180.2,90.348 c 0.5,0.45 5.26,3.321 6.73,4.047 1.46,0.727 0.72,-0.38 2.07,0.312 1.34,0.692 4.8,3.407 6,3.839 1.21,0.433 1.47,-0.743 1.25,-1.245 -0.23,-0.502 -2.59,-1.764 -2.59,-1.764 l -3.42,-2.283 c -1.14,-0.744 -2.17,-1.159 -3.42,-2.179 -1.24,-1.021 -2.55,-2.906 -4.04,-3.944 -1.48,-1.038 -2.74,-1.643 -4.86,-2.283 -2.13,-0.64 -5.84,-1.228 -7.87,-1.557 -2.04,-0.328 -5.03,-0.639 -4.35,-0.415 0.67,0.225 5.92,0.969 8.39,1.765 2.46,0.795 4.78,2.04 6.42,3.009 1.64,0.969 2.84,2.127 3.41,2.802 0.57,0.674 0.59,1.228 0,1.245 -0.58,0.017 -4.23,-1.799 -3.72,-1.349 z" /><path
       id="path162"
       style="fill:#404040;fill-opacity:1;fill-rule:evenodd;stroke:none"
       d="m 45.991,101.17 c 0.623,0.56 2.268,-1.1 1.974,-1.989 -0.294,-0.888 -3.342,-3.938 -3.74,-3.345 -0.398,0.592 1.143,4.774 1.766,5.334 z" /><path
       id="path164"
       style="fill:#404040;fill-opacity:1;fill-rule:evenodd;stroke:none"
       d="m 130.37,111.24 c -0.68,-0.11 -1,-3.78 -2.2,-4.54 -1.2,-0.75 -4.07,0.4 -5.03,0 -0.95,-0.39 -1.51,-2.13 -0.73,-2.37 0.79,-0.24 3.81,0.43 5.45,0.93 1.64,0.5 3.83,1.13 4.39,2.06 0.56,0.93 -1.2,4.02 -1.88,3.92 z" /><path
       id="path166"
       style="fill:#404040;fill-opacity:1;fill-rule:evenodd;stroke:none"
       d="m 81.904,76.434 c -0.728,-0.087 -1.993,-1.2 -2.183,-1.879 -0.191,-0.678 0.311,-2.279 1.039,-2.192 0.728,0.087 3.032,2.123 3.327,2.714 0.295,0.591 -1.455,1.444 -2.183,1.357 z" /><path
       id="path168"
       style="fill:#404040;fill-opacity:1;fill-rule:evenodd;stroke:none"
       d="m 128.37,152.76 c -0.45,0 -0.09,-0.79 0.31,-2.69 0.4,-1.9 1.78,-8.27 2.1,-8.69 0.31,-0.41 -0.46,5.16 -0.21,6.21 0.24,1.05 1.67,-0.26 1.67,0.1 0,0.36 -1.53,1.67 -1.67,2.07 -0.14,0.4 1.27,-0.34 0.83,0.31 -0.43,0.66 -2.58,2.69 -3.03,2.69 z" /><path
       id="path170"
       style="fill:#404040;fill-opacity:1;fill-rule:evenodd;stroke:none"
       d="m 148.63,151.66 c -0.61,0.18 -1.97,-1.01 -2.36,-1.78 -0.4,-0.77 -0.19,-2.64 0,-2.83 0.18,-0.19 0.73,1.7 1.13,1.68 0.39,-0.02 1.34,-1.4 1.23,-1.78 -0.1,-0.39 -2.09,0.22 -1.85,-0.53 0.24,-0.75 2.73,-3.93 3.29,-3.98 0.57,-0.05 0.12,2.6 0.11,3.67 -0.02,1.06 0.1,1.62 -0.21,2.72 -0.31,1.1 -0.72,2.66 -1.34,2.83 z" /><path
       id="path172"
       style="fill:#404040;fill-opacity:1;fill-rule:evenodd;stroke:none"
       d="m 185.3,102.24 c -1.78,0.03 -7.08,-1.33 -8.99,-2.15 -1.92,-0.821 -3.44,-2.682 -2.51,-2.767 0.92,-0.086 5.85,1.826 8.05,2.253 2.19,0.424 4.26,-0.136 5.12,0.308 0.85,0.446 0.1,2.326 -1.67,2.356 z" /><path
       id="path174"
       style="fill:#404040;fill-opacity:1;fill-rule:evenodd;stroke:none"
       d="m 58.301,104.88 c -0.169,0.07 -2.027,-1.43 -2.23,-1.8 -0.203,-0.37 0.642,-0.6 1.014,-0.42 0.371,0.18 1.385,2.15 1.216,2.22 z" /><path
       id="path176"
       style="fill:#404040;fill-opacity:1;fill-rule:evenodd;stroke:none"
       d="m 143.64,145.72 c -0.48,0.43 -2.98,-0.95 -3,-1.66 -0.02,-0.7 2.3,-2.51 2.9,-2.58 0.6,-0.07 0.59,3.81 0.1,4.24 z" /><path
       id="path178"
       style="fill:#404040;fill-opacity:1;fill-rule:evenodd;stroke:none"
       d="m 149.91,137.75 c -0.42,-0.12 -1.3,-2.14 -1.35,-3.12 -0.06,-0.97 1.44,-1.78 1.04,-2.7 -0.4,-0.92 -3.57,-2.7 -3.44,-2.8 0.14,-0.11 3.45,1.14 4.27,2.18 0.81,1.04 0.64,3.03 0.62,4.05 -0.01,1.02 -0.73,2.51 -1.14,2.39 z" /><path
       id="path180"
       style="fill:#404040;fill-opacity:1;fill-rule:evenodd;stroke:none"
       d="m 117.61,116.36 c -0.39,0.34 -2,-1.52 -1.93,-2.23 0.07,-0.71 1.97,-2.3 2.36,-2.02 0.4,0.29 -0.03,3.91 -0.43,4.25 z" /><path
       id="path182"
       style="fill:#404040;fill-opacity:1;fill-rule:evenodd;stroke:none"
       d="m 131.55,139.31 c -0.23,-0.41 1.08,-1.35 1.81,-2.13 0.73,-0.78 2.29,-2.56 2.56,-2.54 0.26,0.02 -0.77,1.81 -0.96,2.64 -0.2,0.83 0.28,1.95 -0.22,2.34 -0.49,0.39 -2.96,0.1 -3.19,-0.31 z" /><path
       id="path184"
       style="fill:#404040;fill-opacity:1;fill-rule:evenodd;stroke:none"
       d="m 201.44,102.83 c -0.31,0.22 -3.35,-2.47 -3.64,-3.231 -0.3,-0.763 1.26,-1.735 1.87,-1.353 0.61,0.381 2.08,4.354 1.77,4.584 z" /><path
       id="path186"
       style="fill:#404040;fill-opacity:1;fill-rule:evenodd;stroke:none"
       d="m 208.02,117.81 c -0.16,-0.53 1.89,-2.53 1.56,-4.08 -0.33,-1.56 -3.59,-4.99 -3.54,-5.24 0.05,-0.24 3.06,2.62 3.86,3.77 0.8,1.15 0.52,2.09 0.93,3.14 0.42,1.05 1.62,2.89 1.57,3.14 -0.05,0.24 -1.01,-1.69 -1.88,-1.68 -0.87,0.02 -2.34,1.47 -2.5,0.95 z" /><path
       id="path188"
       style="fill:#404040;fill-opacity:1;fill-rule:evenodd;stroke:none"
       d="m 215.64,116.34 c 0.03,0.88 -0.63,1.93 -1.13,2.07 -0.49,0.14 -1.33,-0.19 -1.84,-1.24 -0.51,-1.05 -1.21,-4.72 -1.23,-5.06 -0.02,-0.35 0.65,2.82 1.13,2.99 0.47,0.18 1.35,-2.36 1.74,-1.96 0.39,0.4 1.29,2.32 1.33,3.2 z" /><path
       id="path190"
       style="fill:#404040;fill-opacity:1;fill-rule:evenodd;stroke:none"
       d="m 171.72,96.003 c -0.05,0.571 -3.34,2.559 -3.95,2.386 -0.6,-0.172 -0.45,-2.852 0.31,-3.423 0.76,-0.571 3.69,0.467 3.64,1.037 z" /><path
       id="path192"
       style="fill:#404040;fill-opacity:1;fill-rule:evenodd;stroke:none"
       d="m 167.06,80.675 c 0.36,0.07 5.23,-0.053 7.32,0.421 2.1,0.474 5.29,2.476 5.26,2.423 -0.03,-0.053 -4.55,-2.019 -5.46,-2.739 -0.92,-0.72 0.32,-1.562 0,-1.58 -0.33,-0.017 -0.78,1.282 -1.96,1.475 -1.19,0.193 -5.52,-0.07 -5.16,0 z" /><path
       id="path194"
       style="fill:#404040;fill-opacity:1;fill-rule:evenodd;stroke:none"
       d="m 132.5,151.26 c -0.16,-0.3 0.89,-2.73 1.26,-2.92 0.37,-0.19 1.21,1.15 0.95,1.77 -0.26,0.63 -2.06,1.44 -2.21,1.15 z" /><path
       id="path196"
       style="fill:#404040;fill-opacity:1;fill-rule:evenodd;stroke:none"
       d="m 192.36,92.228 c -1.07,-0.487 -9.15,-5.965 -9.68,-6.573 -0.54,-0.609 5,1.878 6.45,2.921 1.46,1.044 4.31,4.139 3.23,3.652 z" /><path
       id="path198"
       style="fill:#404040;fill-opacity:1;fill-rule:evenodd;stroke:none"
       d="m 196.91,94.494 c -0.48,-0.432 -3.22,-3.785 -4.65,-5.185 -1.43,-1.4 -4.41,-3.647 -3.93,-3.215 0.48,0.432 5.48,4.563 6.82,5.807 1.34,1.245 2.24,3.025 1.76,2.593 z" /><path
       id="path200"
       style="fill:#404040;fill-opacity:1;fill-rule:evenodd;stroke:none"
       d="m 146.63,102.35 c -0.8,-0.15 -5.49,-3.619 -5.63,-4.156 -0.13,-0.537 3.81,0.468 4.81,0.936 1.01,0.468 1.62,3.38 0.82,3.22 z" /><path
       id="path202"
       style="fill:#404040;fill-opacity:1;fill-rule:evenodd;stroke:none"
       d="m 135.23,152.38 c -0.47,-0.2 -0.47,-2.35 0,-2.59 0.46,-0.23 2.75,0.79 2.77,1.19 0.02,0.39 -2.31,1.6 -2.77,1.4 z" /><path
       id="path204"
       style="fill:#404040;fill-opacity:1;fill-rule:evenodd;stroke:none"
       d="m 148.05,156.24 c -0.61,0.36 -2.77,-0.15 -2.6,-0.61 0.17,-0.46 3.02,-2.06 3.64,-2.15 0.62,-0.08 -0.43,2.4 -1.04,2.76 z" /><path
       id="path206"
       style="fill:#404040;fill-opacity:1;fill-rule:evenodd;stroke:none"
       d="m 140.92,120.93 c -0.27,0.32 -1.7,-1.81 -1.72,-2.55 -0.02,-0.75 1.23,-2.23 1.62,-1.94 0.39,0.29 0.37,4.16 0.1,4.49 z" /><path
       id="path208"
       style="fill:#404040;fill-opacity:1;fill-rule:evenodd;stroke:none"
       d="m 136.2,96.12 c 0,0 -2.43,-0.825 -2.4,-1.053 0.04,-0.228 2.4,1.053 2.4,1.053 z" /><path
       id="path210"
       style="fill:#404040;fill-opacity:1;fill-rule:evenodd;stroke:none"
       d="m 119.64,104.76 c 0,0 -0.74,-2.3 -0.58,-2.62 0.16,-0.31 0.58,2.62 0.58,2.62 z" /><path
       id="path212"
       style="fill:#404040;fill-opacity:1;fill-rule:evenodd;stroke:none"
       d="m 142.46,129 c -0.18,-0.13 1.18,-3.83 1.63,-4.44 0.45,-0.61 1.32,0.06 1.06,0.77 -0.25,0.71 -2.52,3.79 -2.69,3.67 z" /><path
       id="path214"
       style="fill:#404040;fill-opacity:1;fill-rule:evenodd;stroke:none"
       d="m 54.36,102.12 c 0,0 -1.941,-1.38 -1.792,-1.65 0.149,-0.28 1.792,1.65 1.792,1.65 z" /><path
       id="path216"
       style="fill:#404040;fill-opacity:1;fill-rule:evenodd;stroke:none"
       d="m 76.28,73.423 c -0.227,0.182 -1.041,-1.16 -1.952,-1.392 -0.911,-0.232 -3.743,0.182 -3.515,0 0.228,-0.182 3.954,-1.259 4.882,-1.094 0.927,0.166 0.813,2.304 0.585,2.486 z" /><g
       id="g218"><g
         clip-path="url(#clipPath224)"
         id="g220"><path
           id="path226"
           style="fill:#7f7f7f;fill-opacity:1;fill-rule:nonzero;stroke:none"
           d="m 180.07,45.423 c 0.04,-0.124 0.07,-0.234 0.1,-0.328 0.02,-0.094 0.03,-0.171 0.03,-0.232 0,-0.061 -0.01,-0.107 -0.03,-0.138 -0.02,-0.032 -0.05,-0.055 -0.09,-0.069 -0.05,-0.02 -0.16,-0.014 -0.31,0.018 -0.15,0.032 -0.35,0.056 -0.59,0.071 -0.24,0.015 -0.51,0.01 -0.83,-0.016 -0.31,-0.027 -0.66,-0.109 -1.03,-0.246 -0.41,-0.147 -0.75,-0.349 -1.02,-0.607 -0.28,-0.258 -0.49,-0.557 -0.63,-0.897 -0.14,-0.34 -0.2,-0.712 -0.2,-1.116 0.01,-0.404 0.09,-0.823 0.25,-1.256 0.17,-0.477 0.39,-0.874 0.65,-1.191 0.25,-0.317 0.54,-0.557 0.86,-0.719 0.31,-0.162 0.66,-0.248 1.02,-0.256 0.37,-0.008 0.74,0.058 1.13,0.198 0.19,0.069 0.37,0.158 0.54,0.268 0.16,0.11 0.31,0.237 0.44,0.38 l -0.7,1.934 -1.58,-0.574 c -0.08,-0.028 -0.15,-10e-4 -0.23,0.08 -0.08,0.081 -0.16,0.238 -0.25,0.47 -0.04,0.12 -0.07,0.223 -0.09,0.308 -0.02,0.086 -0.03,0.157 -0.02,0.214 0,0.058 0.01,0.103 0.03,0.138 0.03,0.034 0.06,0.059 0.09,0.073 l 2.82,1.022 c 0.07,0.025 0.14,0.036 0.2,0.031 0.06,-0.004 0.12,-0.022 0.18,-0.054 0.06,-0.033 0.11,-0.079 0.15,-0.137 0.05,-0.059 0.09,-0.131 0.12,-0.217 l 1.2,-3.319 c 0.05,-0.129 0.07,-0.25 0.06,-0.363 -0.01,-0.113 -0.08,-0.223 -0.2,-0.329 -0.11,-0.107 -0.27,-0.228 -0.45,-0.363 -0.19,-0.135 -0.38,-0.264 -0.59,-0.387 -0.2,-0.123 -0.41,-0.237 -0.63,-0.34 -0.22,-0.103 -0.44,-0.196 -0.67,-0.279 -0.67,-0.242 -1.3,-0.363 -1.89,-0.362 -0.6,0 -1.14,0.115 -1.64,0.345 -0.5,0.231 -0.94,0.572 -1.32,1.024 -0.38,0.452 -0.69,1.008 -0.93,1.67 -0.25,0.683 -0.37,1.333 -0.36,1.952 0.01,0.618 0.13,1.186 0.37,1.703 0.24,0.518 0.59,0.975 1.05,1.371 0.46,0.396 1.02,0.713 1.68,0.952 0.36,0.131 0.7,0.225 1.01,0.284 0.32,0.058 0.6,0.092 0.85,0.101 0.24,0.01 0.45,0 0.63,-0.029 0.18,-0.028 0.3,-0.062 0.38,-0.101 0.08,-0.039 0.16,-0.109 0.22,-0.209 0.07,-0.1 0.14,-0.258 0.22,-0.473 z m 8.9,-1.174 c 0.17,-0.489 0.27,-0.96 0.29,-1.41 0.02,-0.451 -0.05,-0.87 -0.21,-1.257 -0.15,-0.387 -0.4,-0.732 -0.74,-1.035 -0.34,-0.302 -0.77,-0.549 -1.3,-0.741 -0.51,-0.186 -0.98,-0.276 -1.41,-0.272 -0.43,0.005 -0.82,0.097 -1.16,0.277 -0.35,0.181 -0.66,0.447 -0.92,0.798 -0.26,0.352 -0.49,0.781 -0.67,1.288 -0.18,0.49 -0.28,0.961 -0.29,1.415 -0.02,0.453 0.05,0.873 0.21,1.258 0.15,0.385 0.4,0.728 0.74,1.03 0.33,0.302 0.76,0.548 1.29,0.74 0.52,0.187 0.99,0.28 1.42,0.277 0.43,-0.002 0.81,-0.094 1.16,-0.275 0.34,-0.181 0.65,-0.447 0.91,-0.799 0.27,-0.351 0.49,-0.782 0.68,-1.294 z m -1.65,-0.67 c -0.1,0.283 -0.22,0.536 -0.35,0.758 -0.13,0.222 -0.28,0.402 -0.46,0.539 -0.17,0.137 -0.36,0.223 -0.57,0.257 -0.22,0.034 -0.46,0.002 -0.73,-0.096 -0.24,-0.088 -0.44,-0.208 -0.59,-0.362 -0.14,-0.153 -0.25,-0.336 -0.3,-0.548 -0.05,-0.212 -0.07,-0.447 -0.04,-0.707 0.03,-0.259 0.1,-0.541 0.21,-0.846 0.1,-0.284 0.22,-0.536 0.36,-0.758 0.13,-0.221 0.28,-0.4 0.45,-0.538 0.17,-0.138 0.36,-0.223 0.58,-0.254 0.21,-0.031 0.45,0.002 0.72,0.098 0.25,0.089 0.44,0.21 0.59,0.364 0.15,0.154 0.25,0.335 0.31,0.545 0.05,0.21 0.06,0.444 0.03,0.702 -0.03,0.259 -0.1,0.541 -0.21,0.846 z m 9.49,0.201 c 0.02,-0.043 0.02,-0.085 0.01,-0.127 -0.02,-0.041 -0.05,-0.084 -0.1,-0.127 -0.06,-0.043 -0.13,-0.089 -0.23,-0.138 -0.11,-0.049 -0.23,-0.102 -0.39,-0.158 -0.16,-0.058 -0.29,-0.1 -0.4,-0.128 -0.11,-0.027 -0.2,-0.041 -0.27,-0.041 -0.06,-10e-4 -0.12,0.01 -0.15,0.033 -0.04,0.023 -0.07,0.056 -0.08,0.099 l -1.19,3.28 c -0.11,0.279 -0.21,0.491 -0.3,0.635 -0.1,0.144 -0.21,0.259 -0.33,0.345 -0.12,0.086 -0.25,0.137 -0.4,0.155 -0.14,0.018 -0.29,-0.003 -0.46,-0.062 -0.2,-0.075 -0.38,-0.225 -0.54,-0.452 -0.16,-0.227 -0.3,-0.526 -0.42,-0.896 l 1.39,-3.821 c 0.01,-0.043 0.01,-0.086 0,-0.127 -0.01,-0.042 -0.05,-0.085 -0.1,-0.129 -0.06,-0.044 -0.13,-0.09 -0.23,-0.138 -0.1,-0.048 -0.23,-0.101 -0.39,-0.159 -0.16,-0.058 -0.29,-0.1 -0.4,-0.127 -0.11,-0.026 -0.19,-0.04 -0.27,-0.041 -0.07,-10e-4 -0.12,0.009 -0.16,0.032 -0.03,0.023 -0.06,0.056 -0.08,0.099 l -2.08,5.748 c -0.02,0.043 -0.02,0.084 -0.01,0.124 0.01,0.04 0.04,0.081 0.09,0.123 0.04,0.042 0.11,0.084 0.19,0.127 0.09,0.043 0.2,0.088 0.33,0.136 0.14,0.05 0.25,0.086 0.35,0.108 0.09,0.022 0.17,0.032 0.22,0.028 0.06,-0.004 0.11,-0.018 0.14,-0.042 0.03,-0.024 0.06,-0.058 0.07,-0.101 l 0.24,-0.664 c 0.2,0.459 0.43,0.834 0.69,1.126 0.27,0.291 0.58,0.501 0.94,0.631 0.39,0.141 0.74,0.197 1.06,0.165 0.31,-0.031 0.59,-0.127 0.84,-0.289 0.24,-0.161 0.46,-0.376 0.64,-0.646 0.18,-0.27 0.34,-0.613 0.5,-1.03 z m 7.07,2.566 c 0.02,-0.047 0.02,-0.091 0.01,-0.131 -0.01,-0.04 -0.03,-0.08 -0.08,-0.12 -0.04,-0.04 -0.11,-0.081 -0.19,-0.121 -0.09,-0.041 -0.19,-0.085 -0.32,-0.131 -0.14,-0.05 -0.25,-0.086 -0.34,-0.109 -0.09,-0.023 -0.17,-0.033 -0.23,-0.031 -0.06,0.002 -0.11,0.015 -0.14,0.038 -0.04,0.024 -0.06,0.06 -0.08,0.107 l -0.23,0.638 c -0.18,-0.426 -0.4,-0.785 -0.66,-1.079 -0.26,-0.294 -0.59,-0.513 -0.99,-0.656 -0.44,-0.16 -0.84,-0.209 -1.2,-0.149 -0.37,0.059 -0.7,0.198 -0.99,0.417 -0.3,0.218 -0.56,0.504 -0.78,0.857 -0.23,0.354 -0.42,0.743 -0.57,1.168 -0.19,0.511 -0.3,0.991 -0.34,1.439 -0.04,0.448 -0.01,0.854 0.1,1.218 0.11,0.364 0.29,0.681 0.55,0.949 0.25,0.269 0.59,0.477 0.99,0.625 0.33,0.117 0.64,0.158 0.95,0.122 0.31,-0.036 0.64,-0.134 0.99,-0.294 l -1.13,3.113 c -0.01,0.043 -0.02,0.086 -0.01,0.129 0.02,0.042 0.05,0.087 0.1,0.133 0.06,0.047 0.13,0.095 0.23,0.145 0.1,0.05 0.23,0.104 0.39,0.162 0.16,0.058 0.29,0.099 0.4,0.124 0.1,0.024 0.19,0.035 0.26,0.034 0.07,-0.002 0.12,-0.015 0.16,-0.041 0.04,-0.025 0.07,-0.058 0.08,-0.101 z m -3,3.256 c -0.34,0.208 -0.65,0.35 -0.91,0.428 -0.27,0.077 -0.52,0.074 -0.75,-0.01 -0.22,-0.077 -0.38,-0.195 -0.49,-0.356 -0.12,-0.16 -0.19,-0.346 -0.22,-0.555 -0.02,-0.21 -0.02,-0.431 0.01,-0.665 0.04,-0.233 0.09,-0.464 0.18,-0.691 0.08,-0.241 0.19,-0.468 0.31,-0.682 0.12,-0.213 0.26,-0.393 0.41,-0.54 0.15,-0.146 0.32,-0.246 0.51,-0.301 0.18,-0.054 0.39,-0.041 0.61,0.041 0.11,0.04 0.21,0.096 0.31,0.166 0.09,0.07 0.18,0.162 0.26,0.275 0.09,0.113 0.16,0.249 0.24,0.409 0.07,0.161 0.14,0.352 0.22,0.573 z m 11.36,6.299 c 0.02,-0.047 0.03,-0.108 0.04,-0.181 0.02,-0.073 0.03,-0.181 0.04,-0.322 l 0.36,-5.757 c 0,-0.081 -0.01,-0.15 -0.02,-0.208 -0.02,-0.057 -0.06,-0.112 -0.12,-0.163 -0.06,-0.052 -0.16,-0.106 -0.29,-0.162 -0.13,-0.056 -0.29,-0.122 -0.5,-0.199 -0.22,-0.076 -0.39,-0.133 -0.53,-0.171 -0.13,-0.037 -0.24,-0.057 -0.33,-0.059 -0.08,-0.001 -0.15,0.014 -0.2,0.047 -0.05,0.033 -0.1,0.08 -0.14,0.143 l -2.24,3.142 -0.03,0.053 0.01,-0.063 0.38,-3.815 c 0.01,-0.08 0,-0.148 -0.01,-0.204 -0.02,-0.057 -0.06,-0.113 -0.13,-0.166 -0.07,-0.054 -0.16,-0.11 -0.29,-0.167 -0.14,-0.057 -0.31,-0.123 -0.52,-0.2 -0.21,-0.078 -0.39,-0.135 -0.52,-0.172 -0.14,-0.037 -0.25,-0.056 -0.33,-0.057 -0.08,-0.002 -0.15,0.014 -0.2,0.046 -0.05,0.033 -0.1,0.08 -0.14,0.143 l -3.41,4.648 c -0.08,0.111 -0.14,0.199 -0.18,0.266 -0.04,0.067 -0.06,0.125 -0.08,0.172 -0.02,0.043 -0.02,0.085 -0.01,0.125 0.01,0.041 0.05,0.083 0.1,0.125 0.06,0.041 0.14,0.086 0.24,0.133 0.1,0.046 0.23,0.099 0.39,0.156 0.17,0.063 0.31,0.109 0.43,0.14 0.11,0.03 0.19,0.045 0.26,0.046 0.07,0 0.12,-0.014 0.16,-0.042 0.04,-0.028 0.07,-0.065 0.1,-0.112 l 2.68,-3.807 0.04,-0.072 -0.02,0.082 -0.46,4.609 c -0.01,0.056 0,0.108 0.01,0.154 0.02,0.047 0.05,0.091 0.1,0.133 0.04,0.042 0.12,0.085 0.21,0.13 0.1,0.046 0.23,0.097 0.39,0.155 0.16,0.058 0.29,0.099 0.39,0.124 0.11,0.025 0.19,0.039 0.25,0.04 0.07,0.002 0.12,-0.009 0.15,-0.033 0.04,-0.023 0.07,-0.054 0.1,-0.092 l 2.69,-3.837 0.05,-0.064 -0.02,0.082 -0.44,4.619 c -0.01,0.054 0,0.105 0.01,0.15 0.01,0.046 0.04,0.091 0.1,0.134 0.05,0.044 0.12,0.088 0.22,0.134 0.1,0.046 0.23,0.098 0.39,0.156 0.16,0.058 0.29,0.1 0.4,0.128 0.1,0.029 0.19,0.043 0.25,0.045 0.07,0.002 0.11,-0.009 0.15,-0.034 0.03,-0.024 0.06,-0.058 0.07,-0.101 z m 7.9,-3.674 c 0.02,-0.06 0.02,-0.115 -0.01,-0.165 -0.03,-0.05 -0.09,-0.099 -0.18,-0.148 -0.08,-0.048 -0.22,-0.105 -0.4,-0.171 -0.19,-0.07 -0.34,-0.114 -0.43,-0.131 -0.09,-0.016 -0.16,-0.014 -0.21,0.007 -0.05,0.021 -0.09,0.061 -0.11,0.122 l -0.17,0.457 c -0.14,-0.339 -0.34,-0.635 -0.59,-0.886 -0.25,-0.252 -0.56,-0.445 -0.93,-0.579 -0.3,-0.111 -0.6,-0.173 -0.88,-0.186 -0.29,-0.014 -0.55,0.024 -0.8,0.113 -0.24,0.089 -0.46,0.231 -0.64,0.426 -0.19,0.194 -0.34,0.446 -0.45,0.755 -0.12,0.335 -0.16,0.65 -0.12,0.945 0.04,0.294 0.16,0.569 0.36,0.825 0.2,0.255 0.48,0.492 0.84,0.71 0.36,0.217 0.79,0.419 1.31,0.605 l 0.56,0.203 -0.13,0.348 c -0.07,0.18 -0.14,0.332 -0.23,0.454 -0.08,0.122 -0.18,0.213 -0.3,0.273 -0.12,0.059 -0.25,0.085 -0.41,0.078 -0.15,-0.008 -0.33,-0.049 -0.54,-0.124 -0.27,-0.098 -0.5,-0.216 -0.69,-0.354 -0.19,-0.137 -0.36,-0.272 -0.49,-0.404 -0.14,-0.132 -0.25,-0.248 -0.34,-0.348 -0.09,-0.1 -0.17,-0.163 -0.23,-0.188 -0.05,-0.017 -0.1,-0.017 -0.15,0 -0.04,0.017 -0.09,0.049 -0.13,0.096 -0.05,0.047 -0.09,0.109 -0.13,0.186 -0.05,0.077 -0.08,0.165 -0.12,0.264 -0.05,0.133 -0.08,0.242 -0.08,0.327 -0.01,0.085 0.01,0.17 0.04,0.254 0.04,0.084 0.12,0.191 0.24,0.321 0.13,0.13 0.28,0.264 0.46,0.401 0.17,0.138 0.38,0.271 0.6,0.398 0.22,0.127 0.46,0.237 0.72,0.329 0.45,0.164 0.85,0.26 1.2,0.288 0.35,0.028 0.66,-0.012 0.94,-0.119 0.27,-0.108 0.5,-0.289 0.7,-0.542 0.2,-0.254 0.37,-0.578 0.52,-0.973 z m -2.48,1.884 -0.62,-0.225 c -0.26,-0.095 -0.48,-0.195 -0.65,-0.301 -0.17,-0.106 -0.3,-0.218 -0.39,-0.338 -0.09,-0.119 -0.14,-0.243 -0.15,-0.372 -0.02,-0.129 0,-0.265 0.05,-0.407 0.09,-0.24 0.24,-0.402 0.44,-0.484 0.2,-0.082 0.44,-0.074 0.71,0.025 0.23,0.082 0.41,0.216 0.56,0.402 0.15,0.185 0.29,0.425 0.4,0.72 z m 9.5,0.685 c 0.01,-0.043 0.01,-0.085 0,-0.127 -0.02,-0.041 -0.05,-0.084 -0.1,-0.127 -0.05,-0.043 -0.13,-0.09 -0.23,-0.139 -0.1,-0.049 -0.23,-0.101 -0.39,-0.157 -0.15,-0.058 -0.29,-0.101 -0.4,-0.128 -0.11,-0.027 -0.2,-0.041 -0.26,-0.042 -0.07,0 -0.12,0.011 -0.16,0.034 -0.04,0.023 -0.07,0.056 -0.08,0.099 l -1.19,3.28 c -0.1,0.279 -0.2,0.491 -0.3,0.635 -0.1,0.144 -0.21,0.259 -0.33,0.345 -0.12,0.085 -0.25,0.137 -0.39,0.155 -0.15,0.018 -0.3,-0.003 -0.47,-0.062 -0.2,-0.075 -0.38,-0.226 -0.54,-0.453 -0.15,-0.226 -0.29,-0.525 -0.42,-0.895 l 1.39,-3.822 c 0.02,-0.043 0.02,-0.085 0,-0.127 -0.01,-0.041 -0.05,-0.084 -0.1,-0.128 -0.05,-0.044 -0.13,-0.09 -0.23,-0.138 -0.1,-0.049 -0.23,-0.102 -0.39,-0.159 -0.16,-0.058 -0.29,-0.1 -0.4,-0.127 -0.1,-0.027 -0.19,-0.04 -0.26,-0.042 -0.07,-10e-4 -0.13,0.01 -0.16,0.033 -0.04,0.023 -0.07,0.056 -0.08,0.099 l -2.09,5.748 c -0.02,0.043 -0.02,0.084 -0.01,0.124 0.01,0.04 0.04,0.081 0.09,0.123 0.05,0.042 0.11,0.084 0.2,0.127 0.08,0.042 0.19,0.088 0.32,0.136 0.14,0.05 0.26,0.086 0.35,0.108 0.09,0.022 0.17,0.031 0.23,0.028 0.05,-0.004 0.1,-0.018 0.13,-0.042 0.03,-0.025 0.06,-0.058 0.07,-0.101 l 0.25,-0.664 c 0.19,0.459 0.42,0.834 0.68,1.125 0.27,0.292 0.58,0.502 0.94,0.631 0.39,0.142 0.74,0.197 1.06,0.166 0.31,-0.031 0.59,-0.128 0.84,-0.289 0.25,-0.161 0.46,-0.377 0.64,-0.647 0.18,-0.269 0.35,-0.613 0.5,-1.029 z m 6.4,2.304 c 0.03,-0.06 0.02,-0.115 -0.01,-0.165 -0.03,-0.05 -0.09,-0.099 -0.18,-0.148 -0.08,-0.048 -0.22,-0.105 -0.4,-0.171 -0.19,-0.07 -0.33,-0.113 -0.43,-0.13 -0.09,-0.017 -0.16,-0.015 -0.21,0.006 -0.05,0.021 -0.08,0.062 -0.11,0.122 l -0.16,0.457 c -0.15,-0.339 -0.34,-0.634 -0.6,-0.886 -0.25,-0.252 -0.56,-0.445 -0.93,-0.579 -0.3,-0.111 -0.6,-0.173 -0.88,-0.186 -0.29,-0.013 -0.55,0.024 -0.79,0.113 -0.25,0.089 -0.46,0.231 -0.65,0.426 -0.19,0.194 -0.34,0.446 -0.45,0.755 -0.12,0.336 -0.16,0.65 -0.12,0.945 0.04,0.295 0.16,0.57 0.36,0.825 0.21,0.255 0.49,0.492 0.84,0.71 0.36,0.217 0.8,0.419 1.31,0.605 l 0.56,0.203 -0.13,0.348 c -0.06,0.181 -0.14,0.332 -0.22,0.454 -0.09,0.122 -0.19,0.213 -0.31,0.273 -0.11,0.06 -0.25,0.086 -0.4,0.078 -0.16,-0.008 -0.34,-0.049 -0.55,-0.124 -0.27,-0.098 -0.5,-0.216 -0.69,-0.353 -0.19,-0.138 -0.35,-0.273 -0.49,-0.405 -0.14,-0.132 -0.25,-0.248 -0.34,-0.348 -0.08,-0.1 -0.16,-0.163 -0.23,-0.188 -0.05,-0.017 -0.1,-0.017 -0.14,0 -0.05,0.017 -0.1,0.049 -0.14,0.096 -0.04,0.047 -0.09,0.109 -0.13,0.186 -0.04,0.077 -0.08,0.165 -0.12,0.264 -0.05,0.133 -0.07,0.242 -0.08,0.327 -0.01,0.086 0.01,0.17 0.05,0.254 0.03,0.084 0.11,0.191 0.24,0.321 0.12,0.13 0.27,0.264 0.45,0.401 0.18,0.138 0.38,0.271 0.6,0.398 0.23,0.127 0.46,0.237 0.72,0.329 0.45,0.164 0.85,0.26 1.2,0.288 0.35,0.028 0.67,-0.012 0.94,-0.119 0.27,-0.108 0.51,-0.289 0.71,-0.542 0.2,-0.254 0.37,-0.578 0.51,-0.973 z m -2.48,1.884 -0.62,-0.225 c -0.26,-0.095 -0.48,-0.195 -0.65,-0.301 -0.17,-0.106 -0.3,-0.218 -0.39,-0.338 -0.08,-0.119 -0.14,-0.243 -0.15,-0.372 -0.01,-0.129 0.01,-0.265 0.06,-0.406 0.08,-0.241 0.23,-0.402 0.43,-0.485 0.2,-0.082 0.44,-0.074 0.71,0.025 0.23,0.082 0.42,0.216 0.57,0.402 0.15,0.185 0.28,0.425 0.39,0.721 z" /></g></g><g
       id="g228"><g
         clip-path="url(#clipPath234)"
         id="g230"><path
           id="path236"
           style="fill:#7f7f7f;fill-opacity:1;fill-rule:nonzero;stroke:none"
           d="m 179.99,145.13 c 0.04,-0.1 0.07,-0.2 0.09,-0.27 0.03,-0.08 0.04,-0.15 0.05,-0.21 0,-0.06 0,-0.11 -0.01,-0.15 0,-0.05 -0.02,-0.11 -0.05,-0.17 -0.03,-0.07 -0.1,-0.17 -0.2,-0.29 -0.11,-0.13 -0.25,-0.26 -0.42,-0.41 -0.17,-0.14 -0.37,-0.28 -0.61,-0.42 -0.23,-0.14 -0.49,-0.26 -0.78,-0.37 -0.58,-0.2 -1.12,-0.3 -1.65,-0.29 -0.52,0.01 -1.01,0.13 -1.46,0.36 -0.45,0.23 -0.85,0.58 -1.21,1.04 -0.37,0.46 -0.67,1.04 -0.93,1.74 -0.26,0.7 -0.39,1.37 -0.4,1.99 -0.01,0.61 0.08,1.17 0.29,1.67 0.2,0.5 0.5,0.93 0.91,1.29 0.4,0.37 0.89,0.66 1.46,0.87 0.23,0.08 0.46,0.14 0.69,0.18 0.23,0.04 0.45,0.06 0.65,0.07 0.21,0 0.4,-0.01 0.57,-0.04 0.18,-0.03 0.31,-0.06 0.39,-0.1 0.08,-0.03 0.13,-0.07 0.17,-0.1 0.03,-0.03 0.07,-0.07 0.1,-0.13 0.04,-0.05 0.07,-0.12 0.11,-0.2 0.04,-0.08 0.08,-0.18 0.12,-0.3 0.05,-0.13 0.08,-0.24 0.11,-0.33 0.02,-0.1 0.03,-0.18 0.03,-0.24 0,-0.06 -0.01,-0.11 -0.03,-0.15 -0.02,-0.04 -0.05,-0.06 -0.09,-0.08 -0.06,-0.02 -0.16,-0.01 -0.29,0.03 -0.12,0.04 -0.28,0.07 -0.47,0.11 -0.19,0.04 -0.41,0.05 -0.65,0.05 -0.25,-0.01 -0.52,-0.06 -0.82,-0.17 -0.33,-0.12 -0.6,-0.3 -0.81,-0.53 -0.21,-0.23 -0.36,-0.5 -0.45,-0.82 -0.1,-0.32 -0.12,-0.67 -0.09,-1.06 0.04,-0.39 0.14,-0.81 0.3,-1.26 0.18,-0.49 0.38,-0.89 0.61,-1.22 0.23,-0.32 0.49,-0.56 0.76,-0.72 0.27,-0.17 0.56,-0.26 0.86,-0.28 0.31,-0.01 0.63,0.04 0.96,0.16 0.3,0.11 0.54,0.24 0.74,0.39 0.19,0.15 0.35,0.29 0.48,0.44 0.12,0.14 0.22,0.27 0.3,0.37 0.07,0.11 0.14,0.17 0.2,0.19 0.04,0.01 0.08,0.02 0.11,0.01 0.03,-0.01 0.06,-0.03 0.1,-0.08 0.04,-0.04 0.07,-0.11 0.12,-0.2 0.04,-0.09 0.09,-0.21 0.14,-0.37 z m 7,1.37 c 0.02,-0.04 0.02,-0.09 0,-0.13 -0.01,-0.04 -0.04,-0.08 -0.1,-0.13 -0.05,-0.04 -0.12,-0.08 -0.23,-0.13 -0.1,-0.05 -0.22,-0.11 -0.38,-0.16 -0.16,-0.06 -0.29,-0.1 -0.4,-0.13 -0.11,-0.03 -0.2,-0.04 -0.27,-0.04 -0.06,0 -0.12,0.01 -0.16,0.03 -0.03,0.02 -0.06,0.06 -0.07,0.1 l -1.2,3.28 c -0.1,0.28 -0.2,0.49 -0.3,0.63 -0.1,0.15 -0.21,0.26 -0.32,0.35 -0.12,0.08 -0.26,0.14 -0.4,0.15 -0.15,0.02 -0.3,0 -0.46,-0.06 -0.21,-0.07 -0.39,-0.22 -0.55,-0.45 -0.15,-0.23 -0.29,-0.53 -0.41,-0.9 l 1.39,-3.82 c 0.01,-0.04 0.01,-0.08 0,-0.12 -0.01,-0.05 -0.05,-0.09 -0.1,-0.13 -0.06,-0.05 -0.13,-0.09 -0.23,-0.14 -0.1,-0.05 -0.23,-0.1 -0.39,-0.16 -0.16,-0.06 -0.29,-0.1 -0.4,-0.13 -0.11,-0.02 -0.2,-0.04 -0.27,-0.04 -0.07,0 -0.12,0.01 -0.16,0.03 -0.03,0.03 -0.06,0.06 -0.08,0.1 l -3.08,8.47 c -0.02,0.05 -0.02,0.09 0,0.13 0.01,0.05 0.04,0.09 0.1,0.14 0.05,0.04 0.13,0.09 0.23,0.14 0.09,0.05 0.22,0.11 0.38,0.16 0.16,0.06 0.29,0.1 0.4,0.13 0.11,0.02 0.2,0.03 0.27,0.03 0.07,0 0.12,-0.01 0.16,-0.03 0.04,-0.03 0.07,-0.06 0.08,-0.11 l 1.16,-3.17 c 0.18,0.37 0.39,0.68 0.63,0.92 0.24,0.24 0.52,0.42 0.83,0.54 0.39,0.14 0.74,0.19 1.06,0.16 0.31,-0.03 0.6,-0.13 0.84,-0.29 0.25,-0.16 0.46,-0.38 0.64,-0.65 0.19,-0.27 0.35,-0.62 0.51,-1.05 z m 3.24,1.18 c 0.02,-0.05 0.02,-0.09 0,-0.13 -0.01,-0.04 -0.04,-0.08 -0.1,-0.13 -0.05,-0.04 -0.13,-0.09 -0.23,-0.14 -0.1,-0.04 -0.23,-0.1 -0.39,-0.16 -0.16,-0.05 -0.29,-0.1 -0.4,-0.12 -0.1,-0.03 -0.19,-0.04 -0.26,-0.04 -0.07,-0.01 -0.13,0.01 -0.16,0.03 -0.04,0.02 -0.07,0.05 -0.08,0.1 l -2.09,5.73 c -0.01,0.04 -0.02,0.09 0,0.13 0.01,0.04 0.05,0.08 0.1,0.13 0.05,0.05 0.13,0.09 0.23,0.14 0.1,0.05 0.23,0.11 0.38,0.17 0.16,0.05 0.3,0.1 0.4,0.12 0.11,0.02 0.2,0.04 0.27,0.04 0.07,-0.01 0.13,-0.02 0.16,-0.04 0.04,-0.02 0.07,-0.06 0.08,-0.1 z m -2.68,7.73 c 0.12,-0.32 0.14,-0.57 0.05,-0.75 -0.09,-0.17 -0.31,-0.32 -0.67,-0.45 -0.37,-0.13 -0.64,-0.16 -0.81,-0.09 -0.17,0.07 -0.31,0.27 -0.42,0.58 -0.12,0.33 -0.14,0.58 -0.05,0.75 0.08,0.18 0.31,0.33 0.67,0.46 0.36,0.14 0.63,0.16 0.8,0.09 0.18,-0.08 0.32,-0.27 0.43,-0.59 z m 9.82,-5.14 c 0.01,-0.04 0.01,-0.08 0,-0.12 -0.02,-0.04 -0.05,-0.09 -0.1,-0.13 -0.05,-0.04 -0.13,-0.09 -0.23,-0.14 -0.1,-0.05 -0.23,-0.1 -0.39,-0.16 -0.15,-0.05 -0.29,-0.1 -0.4,-0.12 -0.11,-0.03 -0.19,-0.05 -0.26,-0.05 -0.07,0 -0.12,0.01 -0.16,0.04 -0.04,0.02 -0.07,0.05 -0.08,0.1 l -1.19,3.28 c -0.11,0.27 -0.21,0.49 -0.3,0.63 -0.1,0.14 -0.21,0.26 -0.33,0.34 -0.12,0.09 -0.25,0.14 -0.4,0.16 -0.14,0.02 -0.3,0 -0.46,-0.06 -0.2,-0.08 -0.39,-0.23 -0.54,-0.46 -0.16,-0.22 -0.3,-0.52 -0.42,-0.89 l 1.39,-3.82 c 0.02,-0.05 0.02,-0.09 0,-0.13 -0.01,-0.04 -0.04,-0.08 -0.1,-0.13 -0.05,-0.04 -0.13,-0.09 -0.23,-0.14 -0.1,-0.04 -0.23,-0.1 -0.39,-0.16 -0.16,-0.05 -0.29,-0.1 -0.4,-0.12 -0.1,-0.03 -0.19,-0.04 -0.26,-0.04 -0.07,-0.01 -0.13,0.01 -0.16,0.03 -0.04,0.02 -0.07,0.05 -0.08,0.1 l -2.09,5.74 c -0.02,0.05 -0.02,0.09 -0.01,0.13 0.01,0.04 0.04,0.08 0.08,0.12 0.05,0.04 0.12,0.08 0.2,0.13 0.09,0.04 0.2,0.09 0.33,0.13 0.14,0.05 0.25,0.09 0.35,0.11 0.09,0.02 0.17,0.03 0.22,0.03 0.06,0 0.1,-0.02 0.14,-0.04 0.03,-0.03 0.06,-0.06 0.07,-0.1 l 0.24,-0.67 c 0.2,0.46 0.42,0.84 0.69,1.13 0.27,0.29 0.58,0.5 0.93,0.63 0.4,0.14 0.75,0.2 1.06,0.17 0.32,-0.03 0.6,-0.13 0.85,-0.29 0.24,-0.16 0.45,-0.38 0.64,-0.65 0.18,-0.27 0.34,-0.61 0.49,-1.03 z m 6.51,2.36 c 0.03,-0.06 0.02,-0.12 -0.01,-0.17 -0.03,-0.05 -0.09,-0.1 -0.17,-0.15 -0.09,-0.05 -0.22,-0.1 -0.4,-0.17 -0.2,-0.07 -0.34,-0.11 -0.44,-0.13 -0.09,-0.02 -0.16,-0.02 -0.21,0.01 -0.05,0.02 -0.08,0.06 -0.11,0.12 l -0.16,0.46 c -0.15,-0.34 -0.34,-0.64 -0.59,-0.89 -0.26,-0.25 -0.57,-0.45 -0.94,-0.58 -0.3,-0.11 -0.59,-0.17 -0.88,-0.19 -0.28,-0.01 -0.55,0.03 -0.79,0.11 -0.25,0.09 -0.46,0.23 -0.65,0.43 -0.19,0.19 -0.34,0.45 -0.45,0.75 -0.12,0.34 -0.16,0.65 -0.12,0.95 0.04,0.29 0.16,0.57 0.36,0.82 0.2,0.26 0.48,0.5 0.84,0.71 0.36,0.22 0.8,0.42 1.31,0.61 l 0.56,0.2 -0.13,0.35 c -0.06,0.18 -0.14,0.33 -0.23,0.46 -0.08,0.12 -0.18,0.21 -0.3,0.27 -0.12,0.06 -0.25,0.08 -0.41,0.08 -0.15,-0.01 -0.33,-0.05 -0.54,-0.13 -0.27,-0.1 -0.5,-0.21 -0.69,-0.35 -0.19,-0.14 -0.36,-0.27 -0.49,-0.41 -0.14,-0.13 -0.25,-0.25 -0.34,-0.35 -0.09,-0.1 -0.16,-0.16 -0.23,-0.18 -0.05,-0.02 -0.1,-0.02 -0.15,0 -0.04,0.01 -0.09,0.05 -0.13,0.09 -0.05,0.05 -0.09,0.11 -0.13,0.19 -0.04,0.08 -0.08,0.16 -0.12,0.26 -0.05,0.14 -0.08,0.24 -0.08,0.33 -0.01,0.09 0.01,0.17 0.04,0.25 0.04,0.09 0.12,0.2 0.24,0.32 0.13,0.13 0.28,0.27 0.46,0.41 0.17,0.13 0.38,0.27 0.6,0.39 0.22,0.13 0.46,0.24 0.71,0.33 0.46,0.17 0.86,0.26 1.21,0.29 0.35,0.03 0.66,-0.01 0.94,-0.12 0.27,-0.1 0.5,-0.28 0.7,-0.54 0.2,-0.25 0.37,-0.57 0.52,-0.97 z m -2.48,1.88 -0.62,-0.23 c -0.26,-0.09 -0.48,-0.19 -0.65,-0.3 -0.17,-0.11 -0.3,-0.22 -0.39,-0.34 -0.08,-0.12 -0.14,-0.24 -0.15,-0.37 -0.01,-0.13 0.01,-0.27 0.06,-0.41 0.08,-0.24 0.23,-0.4 0.43,-0.48 0.2,-0.08 0.44,-0.07 0.71,0.02 0.23,0.09 0.42,0.22 0.57,0.41 0.15,0.18 0.28,0.42 0.39,0.72 z" /></g></g><g
       id="g238"><g
         clip-path="url(#clipPath244)"
         id="g240"><text
           id="text248"
           style="font-variant:normal;font-weight:bold;font-size:14.03999996px;font-family:Calibri;-inkscape-font-specification:Calibri-Bold;writing-mode:lr-tb;fill:#7f7f7f;fill-opacity:1;fill-rule:nonzero;stroke:none"
           transform="matrix(1,0,0,-1,21.36,146.38)"><tspan
             id="tspan246"
             y="0"
             x="0 6.8515201 14.391 19.08036 26.016121 37.430641 44.49276 49.547161 53.000999 58.78548">Euramerica</tspan></text>
</g></g><g
       id="g250"><g
         clip-path="url(#clipPath256)"
         id="g252"><text
           id="text260"
           style="font-variant:normal;font-weight:bold;font-size:14.06400013px;font-family:Calibri;-inkscape-font-specification:Calibri-Bold;writing-mode:lr-tb;fill:#bfbfbf;fill-opacity:1;fill-rule:nonzero;stroke:none"
           transform="matrix(1,0,0,-1,153.36,59.52)"><tspan
             id="tspan258"
             y="0"
             x="0">?</tspan></text>
</g></g><g
       id="g262"><g
         clip-path="url(#clipPath268)"
         id="g264"><text
           id="text272"
           style="font-variant:normal;font-weight:bold;font-size:14.06400013px;font-family:Calibri;-inkscape-font-specification:Calibri-Bold;writing-mode:lr-tb;fill:#bfbfbf;fill-opacity:1;fill-rule:nonzero;stroke:none"
           transform="matrix(1,0,0,-1,149.4,112.08)"><tspan
             id="tspan270"
             y="0"
             x="0">?</tspan></text>
</g></g><g
       id="g274"><g
         clip-path="url(#clipPath280)"
         id="g276"><text
           id="text284"
           style="font-variant:normal;font-weight:bold;font-size:14.03999996px;font-family:Calibri;-inkscape-font-specification:Calibri-Bold;writing-mode:lr-tb;fill:#bfbfbf;fill-opacity:1;fill-rule:nonzero;stroke:none"
           transform="matrix(1,0,0,-1,98.184,153.31)"><tspan
             id="tspan282"
             y="0"
             x="0">?</tspan></text>
</g></g><path
       id="path286"
       style="fill:#ff9e01;fill-opacity:0.74901997;fill-rule:evenodd;stroke:none"
       d="m 141,113.98 c 0.07,-0.71 -0.93,-2.23 -1.46,-2.51 -2.1,-1.13 -6.23,-0.26 -8.97,-0.74 -1.71,-0.3 -3.06,-0.86 -4.59,-1.04 -0.3,-0.42 0.53,-0.69 0.21,-1.15 -0.91,0.08 -1.34,-0.23 -2.09,-0.21 -1.09,0.02 -2.42,0.86 -3.44,0.52 -1.28,-0.42 -0.86,-2.64 -1.67,-3.66 -0.52,-0.65 -2.33,-1.11 -3.34,-1.15 -1.47,-0.06 -2.98,0.51 -4.38,0.73 1.8,1.31 4.42,1.78 5.74,3.56 -2.05,0.28 -4.19,-0.44 -6.36,-0.63 -3.87,-0.34 -7.68,-0.13 -11.89,-0.31 -5.723,-0.25 -11.894,0.15 -16.999,1.88 -0.648,-0.36 -1.129,-0.89 -1.46,-1.57 -1.534,-1.14 -4.628,-2 -6.987,-1.05 1.495,1.54 3.178,3.32 6.048,3.14 -0.522,0.81 -1.399,0.46 -2.085,0.53 -2.935,0.27 -6.022,1.01 -9.178,1.36 -1.531,0.16 -3.066,0.35 -4.588,0.52 -1.543,0.17 -3.027,0.69 -4.485,0.84 -1.61,0.16 -3.266,-0.41 -4.797,-0.53 -5.006,-0.38 -8.807,1.87 -11.993,4.19 0,0.03 0,0.07 0,0.1 3.712,1.19 7.952,2.06 11.889,2.72 0.208,0 0.417,0 0.626,0 0.248,-0.17 1.211,-0.17 1.46,0 0.07,0 0.138,0 0.208,0 2.312,-0.29 4.602,-2.22 6.883,-2.82 1.5,-0.4 4.17,-0.04 6.257,0.1 3.634,0.24 7.122,0.65 10.951,0.73 9.683,0.21 18.805,0.65 27.84,1.47 2.38,0.21 5.01,0.22 7.41,0.1 3.36,-0.17 6.87,-0.73 10.32,-0.42 1.73,0.16 3.26,0.66 5.01,0.32 1.71,-0.34 2.95,-1.4 5.11,-2.41 1.34,-0.62 4.67,-1.43 4.8,-2.61 z" /><path
       id="path288"
       style="fill:#ff6600;fill-opacity:0.74901997;fill-rule:nonzero;stroke:none"
       d="m 233.09,94.43 -4.47,-1.383 -0.46,1.49 4.47,1.383 z m -5.96,-1.844 -4.25,-1.314 -0.23,-0.069 -0.45,1.493 0.23,0.068 -0.01,-10e-4 4.25,1.313 z m -5.97,-1.835 -3.37,-1.018 -1.12,-0.331 -0.44,1.496 1.12,0.33 -0.01,-10e-4 3.37,1.018 z m -5.98,-1.791 -2.46,-0.729 -2.04,-0.584 -0.43,1.5 2.03,0.583 v -0.002 l 2.46,0.727 z m -6,-1.743 -1.52,-0.436 -3,-0.82 -0.41,1.505 2.99,0.819 -0.01,-0.003 1.52,0.435 z m -6.02,-1.668 -0.53,-0.143 -4.01,-1.041 -0.39,1.51 4.01,1.04 -0.01,-0.003 0.51,0.142 z m -6.07,-1.57 -4.39,-1.061 -0.17,-0.039 -0.34,1.524 0.17,0.036 -0.02,-0.003 4.39,1.059 z m -6.08,-1.436 -3.22,-0.709 -1.38,-0.273 -0.3,1.531 1.37,0.271 -0.01,-0.004 3.2,0.707 z m -6.13,-1.284 -1.93,-0.381 -2.69,-0.461 -0.27,1.538 2.68,0.459 -0.02,-0.004 1.93,0.38 z m -6.16,-1.105 -0.56,-0.097 -4.1,-0.574 -0.21,1.545 4.08,0.572 -0.03,-0.004 0.56,0.095 z m -6.22,-0.866 -1.41,-0.159 -2.32,-0.226 -0.96,-0.076 -0.12,1.556 0.95,0.075 -0.01,-0.002 2.3,0.225 -0.01,-10e-4 1.4,0.158 z m -6.26,-0.579 -2.05,-0.116 -2.26,-0.083 -0.4,-0.005 -0.02,1.56 0.39,0.005 -0.02,-10e-4 2.24,0.083 -0.01,-0.001 2.04,0.115 z m -6.27,-0.225 -0.28,-0.004 -2.21,0.023 -2.2,0.075 -0.04,0.003 0.09,1.557 0.03,-0.002 -0.02,0.001 2.18,-0.075 h -0.02 l 2.2,-0.022 h -0.02 l 0.27,0.004 z m -6.29,0.189 -0.57,0.034 -2.15,0.189 -1.98,0.227 0.18,1.55 1.97,-0.226 -0.02,0.002 2.12,-0.187 -0.02,0.002 0.56,-0.034 z m -6.26,0.661 -0.68,0.092 -2.07,0.349 -1.9,0.356 0.28,1.533 1.9,-0.355 -0.02,0.003 2.06,-0.345 -0.03,0.003 0.67,-0.09 z m -6.2,1.12 -0.65,0.138 -2.02,0.485 -1.91,0.519 0.41,1.506 1.9,-0.517 -0.03,0.006 2.01,-0.48 -0.02,0.005 0.63,-0.135 z m -6.09,1.552 -0.55,0.151 -3.91,1.239 -0.06,0.022 0.52,1.469 0.05,-0.018 -0.02,0.01 3.87,-1.23 -0.03,0.009 0.54,-0.147 z m -5.99,1.938 -2.31,0.826 -2.1,0.836 0.58,1.449 2.08,-0.831 -0.02,0.01 2.29,-0.821 z m -5.86,2.24 -0.23,0.096 -3.74,1.613 -0.36,0.168 0.66,1.415 0.35,-0.163 -0.02,0.008 3.71,-1.605 -0.02,0.008 0.23,-0.091 z m -5.74,2.534 -1.91,0.886 -2.33,1.147 0.69,1.399 2.32,-1.143 -0.02,0.008 1.9,-0.882 z m -5.65,2.73 -3.53,1.822 -0.63,0.342 0.73,1.375 0.64,-0.34 -0.01,0.006 3.52,-1.819 z m -5.54,2.902 -1.57,0.845 -2.55,1.397 0.76,1.367 2.54,-1.395 -0.01,0.003 1.57,-0.842 z m -5.49,3 -2.383,1.341 0.764,1.359 2.389,-1.34 z m -2.599,-1.085 -3.761,5.555 6.7,-0.32 z" /><path
       id="path290"
       style="fill:#ff6600;fill-opacity:0.74901997;fill-rule:evenodd;stroke:none"
       d="m 206.88,115.29 c 0,0.24 4.88,-0.1 6.87,-0.68 1.98,-0.34 1.53,-0.2 2.14,-0.38 0.32,-0.1 0.81,-0.55 1.98,-0.77 0.63,0.21 1.25,-0.03 1.76,0.31 -0.06,0.1 -0.17,0.14 -0.31,0.15 -0.25,0.73 -0.76,1.81 -0.84,2.1 -0.08,0.29 -0.08,0.29 0.08,0.49 0.26,0.19 0.62,0.16 0.91,0.08 0.14,-0.04 1.32,-0.48 1.45,-0.53 0.2,-0.08 1.1,-0.52 1.91,-0.92 0.81,-0.39 1.11,-0.42 1.68,-0.61 1.61,-0.53 3.7,-0.11 5.53,0 0.04,0.04 0.08,0.08 0.12,0.12 -0.33,0.17 -0.56,0.43 -0.99,0.49 -0.14,0.36 -0.23,1.18 -0.16,1.41 0.08,0.24 -0.03,0.91 -0.07,1.34 0.28,0.18 0.7,-0.03 0.91,-0.16 0.13,-0.04 2.38,-1.3 3.21,-1.75 0.83,-0.45 0.64,-0.47 1.14,-0.53 0.43,-0.41 1.15,-0.5 1.72,-0.77 0.11,0.04 3.17,0.39 3.17,0.39 0,0 4.25,0.21 5.11,0.22 1.09,0.03 5.57,0.08 5.57,0.08 l 1.72,0.08 c 0,0 3.19,0 3.32,0.07 2.59,0.01 5.19,-0.61 5.19,-0.61 0,0 1.09,-0.37 1.68,-0.68 0.59,-0.32 1.28,-0.94 1.52,-1.8 0,-0.19 -0.02,-0.4 0.08,-0.49 -0.06,-0.32 -0.41,-0.36 -0.46,-0.69 -0.11,-0.04 -0.07,0.09 -0.07,0.16 -0.07,0 -0.13,0 -0.2,0 -0.05,-0.02 -0.03,-0.1 -0.03,-0.16 -0.12,0.01 -0.12,0.12 -0.19,0.16 -0.06,-0.02 -0.04,-0.1 -0.04,-0.16 -0.11,0.04 -0.2,0.11 -0.31,0.16 -0.15,0.06 -0.01,-0.17 -0.11,-0.16 -0.29,0.06 -0.71,0.14 -0.96,-0.15 -0.13,0 -0.09,0.16 -0.22,0.15 -0.16,0.06 -0.02,-0.16 -0.12,-0.15 -0.12,0.02 -0.3,0.16 -0.38,0 -0.18,0.06 -0.76,0.07 -0.88,-0.15 -0.11,0 -0.11,0.11 -0.19,0.15 -0.53,-0.18 -1.19,-0.24 -1.72,-0.42 0.04,-0.2 0.31,-0.15 0.46,-0.19 0.2,-0.06 0.43,-0.15 0.57,-0.23 0.37,0 0.68,-0.06 0.96,-0.15 0.12,-0.03 0.14,0.03 0.19,0.07 0.15,0.04 0.09,-0.13 0.27,-0.07 0.13,-0.01 0.09,0.16 0.22,0.15 -0.06,-0.21 0.17,-0.12 0.2,-0.23 0.02,0.06 0.12,0.06 0.11,0.15 0.54,-0.15 0.98,0.12 1.64,0.08 0.05,0.01 0.03,0.1 0.04,0.15 0.2,-0.16 0.51,0.06 0.61,0.23 0.03,-0.28 0.13,-0.47 0.23,-0.68 -0.07,-0.09 0.1,-0.01 -0.08,-0.39 -0.17,-0.37 -2.34,-1.09 -3.09,-1.29 -0.75,-0.21 -2.2,-0.26 -2.33,-0.31 -0.92,-0.17 -1.68,-0.14 -2.71,-0.53 -1.09,-0.2 -2.73,-0.2 -2.97,-0.23 -0.31,-0.04 -0.69,0.04 -0.84,-0.08 -0.15,-0.11 -0.21,-0.17 -0.5,-0.3 -0.22,-0.46 -0.46,-0.94 -0.76,-1.3 -0.3,-0.35 -1.3,-1.78 -2.56,-2.28 -0.06,-0.16 -1.22,-0.69 -1.68,-0.77 -0.66,-0.11 -1.41,-0.01 -1.94,0.16 -0.04,0.49 0.21,0.75 0.53,0.99 0.32,0.23 0.43,0.78 0.69,1.06 0.26,0.29 0.66,0.79 0.99,1.19 -0.09,0.06 -0.1,0.04 -0.5,-0.04 -0.4,-0.09 -1.25,-0.24 -1.87,-0.31 -0.08,-0.01 -4.15,-0.2 -4.27,-0.15 -2.04,0.19 -3.85,0.24 -5.53,0.69 -0.71,-0.28 -1.22,-0.98 -1.64,-1.3 -0.43,-0.32 -3.15,-1.73 -3.32,-1.83 -0.72,-0.12 -1.52,-0.24 -2.03,0.19 0.44,0.72 1.48,1.63 1.61,1.87 0.13,0.23 0.94,0.99 1.6,1.14 0.05,0.13 -0.12,0.03 -0.08,0.16 -0.55,-0.06 -0.89,0.07 -1.37,0.22 -0.48,0.16 -1.23,0.26 -1.6,0.39 -1.86,0.59 -4.17,-0.46 -4.39,-0.84 -0.05,-0.01 -0.25,-0.51 -0.57,-0.61 -0.33,-0.11 -1.19,-0.93 -2.29,-0.77 -0.02,0.66 0.37,1.17 0.45,1.72 0.09,0.52 0.06,0.51 0.42,0.8 0.2,0.16 1.16,0.51 1.34,0.73 -0.12,0.19 -0.15,0.22 -0.73,0.19 -0.57,-0.03 -4.92,-0.59 -5.49,-0.77 -0.48,-0.19 -0.99,-0.36 -1.56,-0.45 -0.09,0.25 -0.33,0.19 -0.31,0.72" /><path
       id="path292"
       style="fill:#ff0000;fill-opacity:0.74901997;fill-rule:nonzero;stroke:none"
       d="m 187.8,116.66 1.79,-1.74 -0.01,0.01 1.59,-1.5 -1.07,-1.14 -1.59,1.51 -1.79,1.74 z m 4.52,-4.25 0.97,-0.86 -0.03,0.02 2.03,-1.63 -0.03,0.03 0.63,-0.46 -0.91,-1.26 -0.65,0.46 -2.06,1.66 -0.99,0.87 z m 4.83,-3.78 0.29,-0.2 -0.03,0.02 1.17,-0.73 -0.02,0.01 1.22,-0.72 -0.03,0.01 1.29,-0.68 -0.03,0.02 0.07,-0.04 -0.67,-1.41 -0.09,0.05 -1.31,0.69 -1.25,0.74 -1.19,0.75 -0.3,0.2 z m 5.32,-2.97 1.29,-0.57 -0.03,0.01 1.5,-0.58 -0.03,0.01 1.57,-0.55 -0.51,-1.47 -1.58,0.55 -1.53,0.6 -1.31,0.57 z m 5.76,-2.13 0.18,-0.05 -0.02,0.01 1.71,-0.48 h -0.02 l 1.8,-0.45 -0.02,0.01 0.85,-0.2 -0.35,-1.52 -0.85,0.2 -1.82,0.45 -1.73,0.49 -0.18,0.05 z m 5.98,-1.49 1.39,-0.28 h -0.01 l 1.96,-0.37 h -0.02 l 1.26,-0.22 -0.27,-1.534 -1.26,0.217 -1.97,0.377 -1.39,0.28 z m 6.1,-1.12 3.34,-0.51 h -0.01 l 1.29,-0.18 -0.21,-1.543 -1.3,0.179 -3.34,0.516 z m 6.16,-0.9 1.41,-0.195 -0.01,10e-4 3.24,-0.405 -0.2,-1.548 -3.24,0.406 -1.41,0.195 z m 4.4,1.66 5.59,-3.7 -6.32,-2.251 z" /><path
       id="path294"
       style="fill:#ff0000;fill-opacity:0.74901997;fill-rule:evenodd;stroke:none"
       d="m 164.95,124.3 c -0.34,0.75 -0.51,1.63 -1.36,2.33 -0.85,0.7 -3.06,1.47 -3.74,1.89 -0.68,0.41 -0.78,0.41 -0.35,0.61 0.43,0.2 1.7,0.59 2.95,0.57 1.24,-0.02 4.52,-0.7 4.52,-0.7 1.85,-0.29 5.32,-0.97 6.56,-1.05 1.23,-0.09 0.91,0.09 0.88,0.57 -0.04,0.47 -1.13,1.74 -1.1,2.28 0.03,0.54 0.39,1.02 1.27,0.96 0.88,-0.05 2.6,-0.91 4,-1.31 1.41,-0.41 3.37,-1.02 4.44,-1.1 1.07,-0.08 1.81,0.23 1.98,0.61 0.18,0.38 -0.88,1.23 -0.92,1.67 -0.04,0.44 -0.04,1 0.66,0.97 0.69,-0.04 2.52,-0.77 3.52,-1.19 0.99,-0.41 0.61,-1.07 2.46,-1.31 1.85,-0.25 6.39,0.02 8.62,-0.14 2.22,-0.15 3.57,-0.7 4.75,-0.79 1.17,-0.08 0.49,0.5 2.28,0.27 1.79,-0.24 7.13,-0.89 8.44,-1.67 1.32,-0.78 0.11,-2.17 -0.57,-3.03 -0.67,-0.86 -2.32,-1.52 -3.47,-2.11 -1.15,-0.58 -2.6,-1.12 -3.43,-1.4 -0.83,-0.28 -1.13,-0.16 -1.54,-0.26 -0.41,-0.11 -0.53,-0.3 -0.92,-0.36 -0.4,-0.05 -0.36,0.48 -1.45,0 -1.1,-0.47 -3.76,-2.39 -5.1,-2.85 -1.35,-0.46 -2.37,-0.3 -2.95,0.09 -0.58,0.39 0.2,1.85 -0.53,2.24 -0.73,0.39 -2.12,-0.04 -3.87,0.09 -1.74,0.12 -5.01,0.83 -6.59,0.65 -1.59,-0.17 -1.78,-1.31 -2.91,-1.71 -1.12,-0.4 -3.29,-1.18 -3.82,-0.7 -0.54,0.48 0.92,2.96 0.61,3.56 -0.3,0.59 -1.37,0.25 -2.41,0 -1.04,-0.26 -2.77,-1.39 -3.83,-1.54 -1.06,-0.15 -2.27,0.28 -2.55,0.66 -0.28,0.37 1.15,1.52 0.88,1.58 -0.27,0.06 -1.72,-1.14 -2.51,-1.23 -0.78,-0.09 -1.7,0.22 -2.19,0.7 -0.5,0.48 -0.36,1.41 -0.71,2.15 z" /></g></svg>